<?xml version="1.0" encoding="utf-8"?>
<!-- Generator: Adobe Illustrator 27.5.0, SVG Export Plug-In . SVG Version: 6.00 Build 0)  -->
<svg version="1.1" xmlns="http://www.w3.org/2000/svg" xmlns:xlink="http://www.w3.org/1999/xlink" x="0px" y="0px"
	 viewBox="0 0 500 500" style="enable-background:new 0 0 500 500;" xml:space="preserve">
<g id="BACKGROUND">
	<g>
		<rect style="fill-rule:evenodd;clip-rule:evenodd;fill:#EF7197;" width="500" height="500"/>
	</g>
</g>
<g id="OBJECTS">
	<polygon style="fill:#FFFFFF;" points="140.536,248.625 161.139,325.072 164.915,324.173 143.889,247.253 	"/>
	<polygon style="fill:#FFFFFF;" points="351.905,248.625 331.302,325.072 327.527,324.173 348.552,247.253 	"/>
	<g id="XMLID_3299_">
		<path id="XMLID_3430_" style="fill:#F9D0D2;" d="M359.478,349.503c0,0-3.016,16.784-7.242,34.971h-0.015
			c-0.941,4.032-1.926,8.138-2.971,12.14c-1.224,4.689-2.494,9.258-3.793,13.409c-3.121,10.079-6.406,17.814-9.363,19.367
			c-9.945,5.226-152.815,6.719-164.373,0c-3.479-2.031-7.556-10.094-11.528-20.382c-0.299-0.777-0.612-1.583-0.911-2.389
			c-2.897-7.735-5.719-16.515-8.213-24.817c-5.137-17.142-8.855-32.298-8.855-32.298H359.478z"/>
		<path id="XMLID_3429_" style="fill:#F7BDC4;" d="M359.478,349.503c0,0-3.016,16.784-7.242,34.971h-0.015
			c-6.6-0.702-11.871-20.024-14.678-23.01c-2.792-2.986-10.229-2.897-12.125,0.328c-1.911,3.225-0.239,13.066-1.448,19.188
			c-1.21,6.107-6.764,9.004-13.723,9.273c-6.943,0.284-12.229-0.687-14.887-6.107c-2.658-5.406-1.867-17.038-4.062-18.71
			c-2.18-1.672-8.252-2.235-8.347,5.693c-0.053,4.398,3.404,19.692,2.942,22.305c-0.463,2.613-1.359,10.452-17.784,8.258
			c-16.425-2.195-11.841-15.589-11.244-21.98c0.612-6.391,0.418-11.572-1.672-12.498c-2.105-0.941-6.257,7.839-8.213,11.199
			c-1.971,3.36-6.346,8.586-11.901,8.108c-5.555-0.463-7.989-2.509-10.826-8.347c-2.852-5.839-5.42-11.244-7.376-12.827
			c-1.956-1.583-4.017,5.405-5.137,8.392c-1.12,2.986-3.539,14.469-16.425,14.753c-12.872,0.269-19.964-21.741-21.741-21.652
			c-1.777,0.09-4.853,7.645-9.616,11.662c-4.748,4.017-10.721,2.046-10.721,2.046l-2.165,1.254
			c-5.137-17.142-8.855-32.298-8.855-32.298H359.478z"/>
		<path id="XMLID_3426_" style="fill:#FFFFFF;" d="M367.511,337.752c-0.299,3.554-3.225,10.303-4.868,16.978
			c-3.181,13.006-6.316,27.206-9.9,27.49c-5.42,0.403-3.897-6.764-9.691-16.844c-5.794-10.079-21.084-8.034-25.011-1.687
			c-3.927,6.346,1.12,9.84-1.493,17.68c-2.613,7.839-13.812,6.466-17.545,3.479c-4.524-3.628-1.867-10.706-4.3-17.052
			c-2.419-6.346-8.959-6.72-13.991-3.36c-5.032,3.36-1.687,16.62-2.046,26.325c-0.388,9.706-12.513,10.452-17.56,6.719
			c-5.032-3.733-2.673-16.261-2.24-23.145c0.567-8.646-5.405-13.125-11.557-6.54c-2.748,2.942-6.421,15.813-14.126,14.932
			c-11.737-1.314-9.96-21.651-18.949-19.785c-8.974,1.866-7.436,23.145-19.382,23.518c-11.946,0.373-16.799-23.891-23.13-22.771
			c-6.331,1.12-8.974,17.545-20.591,18.307c-11.617,0.762-7.795-10.841-16.381-34.359c-1.419-3.883-0.896-7.302,0.956-10.303
			c9.422-15.246,53.173-19.934,53.173-19.934c89.742-12.588,157.892-0.568,174.661,13.364c0.015,0,0.03,0.015,0.06,0.03
			C366.347,333.108,367.691,335.452,367.511,337.752z"/>
		<path id="XMLID_3423_" style="fill:#DE5684;" d="M240.801,420.436c0,0-111.124,2.016-92.536,13.451
			c18.588,11.435,199.765,12.929,211.213-2.003c11.448-14.932-91.856-11.448-91.856-11.448"/>
		<path id="XMLID_3422_" style="fill:#F7BDC4;" d="M349.249,396.614c-1.224,4.689-2.494,9.258-3.793,13.409
			c-3.121,10.079-6.406,17.814-9.363,19.367c-9.945,5.226-152.815,6.719-164.373,0c-3.479-2.031-7.556-10.094-11.528-20.382
			c-0.299-0.777-0.612-1.583-0.911-2.389c2.807-1.18,8.108-2.449,18.023-2.538c19.038-0.194,26.31,6.719,43.124,6.899
			c16.784,0.179,15.29-6.54,32.657-8.213c17.366-1.672,24.444,8.213,41.258,5.973C308.171,406.887,328.21,392,349.249,396.614z"/>
		<path id="XMLID_3421_" style="fill:#FBECF0;" d="M367.511,337.752c-0.299,3.554-3.225,10.303-4.868,16.978
			c-3.181,13.006-6.316,27.206-9.9,27.49c-5.42,0.403-3.897-6.764-9.691-16.844c-5.794-10.079-21.084-8.034-25.011-1.687
			c-3.927,6.346,1.12,9.84-1.493,17.68c-2.613,7.839-13.812,6.466-17.545,3.479c-4.524-3.628-1.867-10.706-4.3-17.052
			c-2.419-6.346-8.959-6.72-13.991-3.36c-5.032,3.36-1.687,16.62-2.046,26.325c-0.388,9.706-12.513,10.452-17.56,6.719
			c-5.032-3.733-2.673-16.261-2.24-23.145c0.567-8.646-5.405-13.125-11.557-6.54c-2.748,2.942-6.421,15.813-14.126,14.932
			c-11.737-1.314-9.96-21.651-18.949-19.785c-8.974,1.866-7.436,23.145-19.382,23.518c-11.946,0.373-16.799-23.891-23.13-22.771
			c-6.331,1.12-8.974,17.545-20.591,18.307c-9.736,0.642-8.631-7.406-13.081-23.891c2.762,3.36,5.898,6.107,9.138,6.839
			c9.96,2.24,16.425-15.186,27.385-12.692c10.945,2.479,15.918,17.411,20.905,16.664c4.972-0.747,9.706-16.172,17.919-14.932
			c8.213,1.254,14.932,16.187,19.651,16.679c4.733,0.493,9.079-20.412,21.219-19.412c12.14,1,11.632,12.946,16.366,13.693
			c4.734,0.747,4.972-13.439,14.439-13.947c9.452-0.493,12.185,13.693,17.919,15.186c5.719,1.493,4.755-8.644,13.558-14.279
			c6.999-4.48,14.559-1.4,24.011-0.16c9.452,1.254,25.489-10.482,6.958-20.143c-0.015-0.015-0.03-0.015-0.045-0.03
			c-4.957-3.315-17.217-6.421-15.126-8.944c1.971-2.374,19.71,0.284,31.193,8.138c0.015,0,0.03,0.015,0.06,0.03
			C366.347,333.108,367.691,335.452,367.511,337.752z"/>
		<g id="XMLID_3374_">
			<g id="XMLID_3399_">
				<path id="XMLID_3418_" style="fill:#FFCD01;" d="M288.779,317.891c-0.021,3.184-0.117,5.961-0.349,8.035
					c-0.201,2.012-0.521,3.352-0.977,3.755c-1.036,0.93-4.382,1.859-7.501,1.558c-1.497-0.134-2.93-0.55-4.064-1.384
					c-0.652-0.472-1.529-4.848-2.457-10.815c-0.239-1.562-0.478-3.218-0.717-4.952c-0.447-3.202-0.893-6.623-1.308-9.996
					c-0.178-1.453-0.356-2.89-0.518-4.295c-0.459-3.827-0.872-7.466-1.195-10.526c-0.163-1.375-0.295-2.64-0.413-3.733
					c-0.324-2.967-0.515-4.81-0.515-4.81c6.807-2.858,12.409-2.665,15.558-2.145c1.824,0.293,2.836,0.69,2.836,0.69
					s0.344,4.684,0.707,11.194c0.14,2.498,0.293,5.246,0.415,8.118c0.082,1.842,0.163,3.731,0.244,5.62
					c0.091,2.732,0.167,5.495,0.212,8.117C288.771,314.255,288.79,316.144,288.779,317.891z"/>
				<path id="XMLID_3415_" style="fill:#FFDF55;" d="M288.281,298.583c-3.79-0.368-11.035-2.101-18.588-9.314
					c-0.163-1.375-0.295-2.64-0.413-3.733c2.877,1.501,9.072,4.102,18.586,4.929C288.006,292.963,288.16,295.711,288.281,298.583z"
					/>
				<path id="XMLID_3412_" style="fill:#FFDF55;" d="M288.737,312.32c-3.634-0.383-10.271-2.003-17.331-8.229
					c-0.178-1.453-0.356-2.89-0.518-4.295c3.22,1.519,9.09,3.68,17.637,4.408C288.617,306.935,288.692,309.698,288.737,312.32z"/>
				<path id="XMLID_3409_" style="fill:#FFDF55;" d="M288.779,317.891c-0.021,3.184-0.117,5.961-0.349,8.035
					c-3.492-0.507-9.022-2.104-14.999-6.887c-0.239-1.562-0.478-3.218-0.717-4.952C276.06,315.514,281.417,317.234,288.779,317.891z
					"/>
				<path id="XMLID_3406_" style="opacity:0.7;fill:#FFCD01;" d="M288.779,317.891c-0.021,3.184-0.117,5.961-0.349,8.035
					c-0.201,2.012-0.521,3.352-0.977,3.755c-1.036,0.93-4.382,1.859-7.501,1.558c4.98-16.947,2.91-50.935,2.91-50.935l1.463-1.723
					c1.824,0.293,2.836,0.69,2.836,0.69s0.344,4.684,0.707,11.194c0.14,2.498,0.293,5.246,0.415,8.118
					c0.082,1.842,0.163,3.731,0.244,5.62c0.091,2.732,0.167,5.495,0.212,8.117C288.771,314.255,288.79,316.144,288.779,317.891z"/>
				<path id="XMLID_3403_" style="fill:#F29B1E;" d="M268.767,280.73c0,0-1.153,3.057,8.993,2.831
					c10.146-0.226,9.557-3.562,9.404-4.287c-0.153-0.725-2.482-2.496-8.726-2.293C272.193,277.185,268.934,279.325,268.767,280.73z"
					/>
				<path id="XMLID_3402_" style="fill:#FFFFFF;" d="M278.297,280.663l-0.835,0.09c-0.581-1.892-0.79-6.9-0.79-6.9l0.983,0.007
					C277.655,273.859,278.512,278.776,278.297,280.663z"/>
				<path id="XMLID_3401_" style="fill:#FFCD01;" d="M274.87,258.231c0,0-9.811,18.899,2.639,17.509
					C289.064,274.451,274.87,258.231,274.87,258.231z"/>
				<path id="XMLID_3400_" style="fill:#FFE274;" d="M274.651,259.497c0,0-3.85,6.949-2.164,10.13
					C274.173,272.809,276.326,264.239,274.651,259.497z"/>
			</g>
			<g id="XMLID_3377_">
				<path id="XMLID_3396_" style="fill:#FFCD01;" d="M310.653,322.554c-0.572,2.68-1.137,5.004-1.694,6.711
					c-0.519,1.661-1.023,2.734-1.477,2.995c-1.035,0.603-4.017,0.804-6.594,0.007c-1.239-0.374-2.374-0.974-3.184-1.875
					c-0.467-0.512-0.444-4.352-0.187-9.543c0.07-1.358,0.157-2.796,0.258-4.298c0.181-2.777,0.401-5.738,0.639-8.653
					c0.103-1.255,0.204-2.497,0.311-3.71c0.28-3.305,0.565-6.444,0.826-9.08c0.102-1.187,0.211-2.276,0.302-3.218
					c0.244-2.557,0.404-4.144,0.404-4.144c6.235-1.223,10.922-0.086,13.486,0.901c1.486,0.565,2.27,1.075,2.27,1.075
					s-0.526,4.008-1.354,9.558c-0.317,2.13-0.666,4.472-1.064,6.914c-0.252,1.567-0.512,3.173-0.773,4.779
					c-0.399,2.318-0.816,4.66-1.235,6.878C311.28,319.488,310.967,321.083,310.653,322.554z"/>
				<path id="XMLID_3393_" style="fill:#FFDF55;" d="M313.596,306.194c-3.13-0.97-8.935-3.693-14.044-11.087
					c0.102-1.187,0.211-2.276,0.302-3.218c2.164,1.767,6.931,5.037,14.806,7.391C314.343,301.409,313.994,303.752,313.596,306.194z"
					/>
				<path id="XMLID_3390_" style="fill:#FFDF55;" d="M311.589,317.851c-2.996-0.955-8.308-3.477-13.174-9.954
					c0.103-1.255,0.204-2.497,0.311-3.71c2.45,1.841,7.02,4.685,14.098,6.786C312.424,313.291,312.007,315.633,311.589,317.851z"/>
				<path id="XMLID_3387_" style="fill:#FFDF55;" d="M310.653,322.554c-0.572,2.68-1.137,5.004-1.694,6.711
					c-2.855-1.035-7.238-3.344-11.442-8.417c0.07-1.358,0.157-2.796,0.258-4.298C300.347,318.335,304.563,320.719,310.653,322.554z"
					/>
				<path id="XMLID_3384_" style="opacity:0.7;fill:#FFCD01;" d="M310.653,322.554c-0.572,2.68-1.137,5.004-1.694,6.711
					c-0.519,1.661-1.023,2.734-1.477,2.995c-1.035,0.603-4.017,0.804-6.594,0.007c7.149-13.416,11.322-42.423,11.322-42.423
					l1.533-1.197c1.486,0.565,2.27,1.075,2.27,1.075s-0.526,4.008-1.354,9.558c-0.317,2.13-0.666,4.472-1.064,6.914
					c-0.252,1.567-0.512,3.173-0.773,4.779c-0.399,2.318-0.816,4.66-1.235,6.878C311.28,319.488,310.967,321.083,310.653,322.554z"
					/>
				<path id="XMLID_3381_" style="fill:#F29B1E;" d="M300.258,287.749c0,0-1.504,2.376,7.086,3.952
					c8.59,1.576,8.675-1.338,8.672-1.975c-0.003-0.637-1.658-2.536-6.955-3.452C303.763,285.357,300.643,286.593,300.258,287.749z"
					/>
				<path id="XMLID_3380_" style="fill:#FFFFFF;" d="M308.301,289.352l-0.72-0.069c-0.16-1.696,0.536-5.953,0.536-5.953l0.827,0.177
					C308.945,283.506,308.812,287.799,308.301,289.352z"/>
				<path id="XMLID_3379_" style="fill:#FFCD01;" d="M309.32,269.849c0,0-11.56,14.22-0.825,15.217
					C318.458,285.991,309.32,269.849,309.32,269.849z"/>
				<path id="XMLID_3378_" style="fill:#FFE274;" d="M308.914,270.878c0,0-4.455,5.186-3.588,8.161
					C306.194,282.014,309.501,275.166,308.914,270.878z"/>
			</g>
			<path id="XMLID_3376_" style="fill:#F6B9D1;" d="M270.93,329.277c0,0,1.302-2.944,5.113-2.921
				c3.811,0.024,7.071,1.966,8.52,1.736c1.449-0.23,2.806-2.519,5.072-2.304c2.267,0.215,3.758,2.79,5.577,2.877
				c1.819,0.088,3.483-2.412,6.556-2.077c3.073,0.335,4.659,3.726,5.746,4.258c1.087,0.532,1.707,0.309,1.707,0.309l-1.037,2.374
				l-33.018-0.813"/>
			<path id="XMLID_3375_" style="fill:#FFFFFF;" d="M269.38,330.546c0,0,1.679-3.477,6.107-3.184
				c4.428,0.293,6.479,2.549,8.739,2.371c2.26-0.178,2.654-3.183,5.496-3.288c2.519-0.094,2.997,2.086,5.236,2.816
				c2.24,0.73,3.227-1.67,6.22-1.375c2.993,0.296,3.404,2.962,5.415,3.584c2.012,0.621,2.26-0.926,4.366-0.249l-1.976,4.757
				l-33.382-1.472"/>
		</g>
		<path id="XMLID_3373_" style="fill:#FBECF0;" d="M235.522,365.937c1.647-3.048,3.694-5.866,5.93-8.513
			c1.806-2.138,3.582-4.602,3.46-5.904c-0.245-2.603-3.627-1.285-6.392,2.615c-2.764,3.9-7.954,12.709-5.84,13.708
			C233.869,368.406,234.67,367.513,235.522,365.937z"/>
		<path id="XMLID_3372_" style="fill:#FBECF0;" d="M334.093,347.144c0,0,6.159,1.742,11.199,1.307
			c5.04-0.436,9.208-6.16,6.968-7.528c-2.24-1.369-3.546,4.044-9.83,3.982C337.248,344.853,325.391,342.476,334.093,347.144z"/>
		<path id="XMLID_3371_" style="fill:#FBECF0;" d="M195.349,364.067c0,0,1.12,0.871,3.982-1.867
			c2.862-2.738,7.342-7.715,6.097-9.955C204.184,350.006,189.998,363.956,195.349,364.067z"/>
		<g id="XMLID_3360_">
			<g id="XMLID_3365_">
				<path id="XMLID_3370_" style="fill:#EF5D5C;" d="M188.816,331.316c-0.523-0.539-0.943-1.077-1.277-1.617l-0.017-0.003
					c-1.949-3.03-1.277-5.883-0.558-7.523c0.402-0.916,0.997-1.75,1.81-2.334c1.217-0.873,2.616-1.17,4.547-1.363
					c2.062-0.202,3.902-0.116,5.435,0.344c2.828,0.81,4.612,2.86,4.814,6.572C203.946,332.294,194.867,337.591,188.816,331.316z"/>
				<path id="XMLID_3369_" style="fill:#E34F4E;" d="M188.816,331.316c-0.523-0.539-0.943-1.077-1.277-1.617
					c6.337,3.011,13.223-1.541,13.257-5.228c0.048-3.667-2.04-5.651-2.04-5.651c2.828,0.81,4.612,2.86,4.814,6.572
					C203.946,332.294,194.867,337.591,188.816,331.316z"/>
				<path id="XMLID_3368_" style="fill:#E34F4E;" d="M192.457,319.672c0,0,0.762,0.375,2.038,0.361
					c1.276-0.014,2.196-1.104,2.459-0.876c0.263,0.228-1.075,1.219-2.452,1.178s-2.451-0.419-2.643-0.705
					C191.667,319.342,191.945,319.494,192.457,319.672z"/>
				<path id="XMLID_3367_" style="fill:#9D3131;" d="M190.609,308.299c0,0,3.909,3.113,3.529,11.473c0,0,0.431,0.143,0.607-0.016
					c0,0,0.931-8.632-3.518-11.884C191.228,307.871,190.743,307.729,190.609,308.299z"/>
				<path id="XMLID_3366_" style="fill:#F28285;" d="M189.368,320.046c0,0-1.55,0.871-2.039,3.432
					c-0.489,2.561,1.28-0.56,2.407-1.47C190.864,321.098,190.559,319.184,189.368,320.046z"/>
			</g>
			<path id="XMLID_3364_" style="fill:#F6B9D1;" d="M189.828,333.398c0,0,0.688-1.296,2.041-1.419
				c1.353-0.123,2.758,0.615,3.584,0.562c0.826-0.053,1.16-1.194,2.319-1.669c1.16-0.474,3.259,0.857,3.816,2.862"/>
			<path id="XMLID_3361_" style="fill:#FFFFFF;" d="M188.458,335.338c0,0,0.98-2.94,3.873-2.683c2.107,0.187,2.45,0.77,3.476,0.49
				c1.027-0.28,0.91-1.353,2.333-1.68c1.423-0.327,3.243,1.236,3.57,2.648c0.327,1.412-1.773,2.508-1.773,2.508"/>
		</g>
		<g id="XMLID_3349_">
			<g id="XMLID_3354_">
				<path id="XMLID_3359_" style="fill:#EF5D5C;" d="M323.68,327.004c-0.362-0.658-0.625-1.288-0.804-1.897l-0.015-0.007
					c-1.08-3.437,0.32-6.012,1.448-7.404c0.629-0.777,1.424-1.426,2.362-1.773c1.404-0.521,2.832-0.438,4.745-0.115
					c2.043,0.35,3.795,0.917,5.152,1.766c2.514,1.527,3.694,3.976,2.909,7.609C338.016,331.94,327.861,334.654,323.68,327.004z"/>
				<path id="XMLID_3358_" style="fill:#E34F4E;" d="M323.68,327.004c-0.362-0.658-0.625-1.288-0.804-1.897
					c5.318,4.577,13.161,2.003,14.167-1.543c1.014-3.525-0.476-5.989-0.476-5.989c2.514,1.527,3.694,3.976,2.909,7.609
					C338.016,331.94,327.861,334.654,323.68,327.004z"/>
				<path id="XMLID_3357_" style="fill:#E34F4E;" d="M330.266,316.733c0,0,0.636,0.563,1.87,0.886
					c1.234,0.323,2.409-0.485,2.602-0.196c0.193,0.29-1.359,0.893-2.676,0.489c-1.317-0.403-2.254-1.051-2.363-1.378
					C329.59,316.207,329.819,316.426,330.266,316.733z"/>
				<path id="XMLID_3356_" style="fill:#9D3131;" d="M331.485,305.276c0,0,2.949,4.034,0.377,11.997c0,0,0.378,0.252,0.59,0.145
					c0,0,3.176-8.08-0.257-12.392C332.194,305.026,331.764,304.761,331.485,305.276z"/>
				<path id="XMLID_3355_" style="fill:#F28285;" d="M327.188,316.279c0,0-1.725,0.431-2.872,2.772
					c-1.148,2.341,1.383-0.203,2.71-0.783C328.353,317.688,328.564,315.761,327.188,316.279z"/>
			</g>
			<path id="XMLID_3353_" style="fill:#F6B9D1;" d="M324.107,329.278c0,0,1.006-1.068,2.343-0.83
				c1.337,0.238,2.498,1.321,3.308,1.488c0.81,0.167,1.434-0.846,2.677-0.998c1.244-0.151,2.917,1.687,2.926,3.768"/>
			<path id="XMLID_3350_" style="fill:#FFFFFF;" d="M322.274,330.788c0,0,1.721-2.577,4.444-1.566
				c1.983,0.737,2.16,1.389,3.224,1.39c1.064,0.001,1.235-1.065,2.694-1.004c1.459,0.06,2.802,2.048,2.744,3.496
				c-0.058,1.448-2.372,1.952-2.372,1.952"/>
		</g>
		<g id="XMLID_3338_">
			<g id="XMLID_3343_">
				<path id="XMLID_3348_" style="fill:#EF5D5C;" d="M227.4,328.77c-0.423-0.51-0.755-1.013-1.012-1.512l-0.014-0.004
					c-1.506-2.802-0.717-5.267,0.03-6.66c0.417-0.778,0.999-1.472,1.755-1.929c1.132-0.684,2.383-0.849,4.096-0.884
					c1.829-0.035,3.443,0.168,4.76,0.679c2.433,0.909,3.861,2.837,3.782,6.118C240.65,330.679,232.292,334.713,227.4,328.77z"/>
				<path id="XMLID_3347_" style="fill:#E34F4E;" d="M227.4,328.77c-0.423-0.51-0.755-1.013-1.012-1.512
					c5.369,3.089,11.745-0.44,12.031-3.683c0.296-3.224-1.404-5.115-1.404-5.115c2.433,0.909,3.861,2.837,3.782,6.118
					C240.65,330.679,232.292,334.713,227.4,328.77z"/>
				<path id="XMLID_3346_" style="fill:#E34F4E;" d="M231.412,318.773c0,0,0.645,0.383,1.769,0.458
					c1.124,0.076,2.009-0.82,2.225-0.601c0.215,0.219-1.031,0.999-2.24,0.867c-1.209-0.132-2.128-0.539-2.277-0.804
					C230.739,318.429,230.974,318.581,231.412,318.773z"/>
				<path id="XMLID_3345_" style="fill:#9D3131;" d="M230.574,308.636c0,0,3.225,3.011,2.312,10.342c0,0,0.369,0.156,0.535,0.028
					c0,0,1.417-7.533-2.273-10.704C231.148,308.302,230.731,308.143,230.574,308.636z"/>
				<path id="XMLID_3344_" style="fill:#F28285;" d="M228.668,318.889c0,0-1.424,0.659-2.032,2.88
					c-0.608,2.22,1.166-0.405,2.221-1.128C229.911,319.919,229.775,318.212,228.668,318.889z"/>
			</g>
			<path id="XMLID_3342_" style="fill:#F6B9D1;" d="M229.168,331.182c0,0,0.284-1.163,2.174-1.303c1.89-0.14,2.24,0.513,4.06,0.187
				c1.82-0.327,2.414,0.058,3.237,1.056c0.823,0.997-3.47,0.811-3.47,0.811"/>
			<path id="XMLID_3339_" style="fill:#FFFFFF;" d="M228.868,331.684c0,0,0.537-1.548,2.66-1.362
				c2.123,0.187,2.146,0.537,3.196,0.42s1.96-1.314,3.78,0.253c1.82,1.567-2.077,2.36-2.077,2.36"/>
		</g>
		<g id="XMLID_3300_">
			<path id="XMLID_3335_" style="fill:#FFDF55;" d="M341.075,331.568c0,0-1.808,0.935-0.997,2.742
				c0.81,1.808,4.051,1.184,3.927-0.81C343.88,331.505,341.811,330.952,341.075,331.568z"/>
			<path id="XMLID_3334_" style="fill:#EF5D5C;" d="M262.108,320.36c0,0-1.808,0.935-0.997,2.742c0.81,1.808,4.051,1.184,3.927-0.81
				C264.913,320.298,262.844,319.744,262.108,320.36z"/>
			<path id="XMLID_3331_" style="fill:#FFDF55;" d="M159.283,341.918c0,0,2.344-6.719,3.744-6.439c1.4,0.28-1.96,9.239-2.986,9.333
				C159.014,344.904,158.528,343.883,159.283,341.918z"/>
			<path id="XMLID_3328_" style="fill:#00B0AE;" d="M166.942,326.225c0,0,6.614-2.628,7.319-1.386
				c0.705,1.241-8.267,4.568-9.009,3.853C164.509,327.977,164.962,326.941,166.942,326.225z"/>
			<path id="XMLID_3325_" style="fill:#FFDF55;" d="M216.514,347.178c0,0-3.368-6.269-2.215-7.112
				c1.153-0.842,5.485,7.689,4.86,8.509C218.534,349.395,217.453,349.063,216.514,347.178z"/>
			<path id="XMLID_3324_" style="fill:#EF5D5C;" d="M182.225,355.177c0,0,4.053-5.85,5.327-5.207
				c1.274,0.644-4.355,8.381-5.369,8.197C181.168,357.984,180.972,356.87,182.225,355.177z"/>
			<path id="XMLID_3321_" style="fill:#FFDF55;" d="M267.497,375.183c0,0-3.368-6.269-2.215-7.112
				c1.152-0.842,5.485,7.689,4.86,8.509C269.516,377.4,268.435,377.068,267.497,375.183z"/>
			<path id="XMLID_3318_" style="fill:#FFDF55;" d="M247.487,314.359c0,0,7.116-0.131,7.338,1.279
				c0.223,1.41-9.346,1.366-9.789,0.436C244.593,315.143,245.382,314.333,247.487,314.359z"/>
			<path id="XMLID_3315_" style="fill:#FFDF55;" d="M315.846,339.362c0,0,6.713,2.364,6.429,3.763
				c-0.284,1.399-9.234-1.987-9.324-3.014C312.86,339.085,313.883,338.602,315.846,339.362z"/>
			<path id="XMLID_3312_" style="fill:#FFDF55;" d="M351.048,356.375c0,0,6.235-3.431,7.089-2.287
				c0.854,1.144-7.633,5.562-8.459,4.945C348.852,358.417,349.173,357.332,351.048,356.375z"/>
			<path id="XMLID_3311_" style="fill:#EF5D5C;" d="M147.402,356.918c0,0-1.808,0.935-0.997,2.742
				c0.81,1.808,4.051,1.184,3.927-0.81C150.207,356.855,148.138,356.302,147.402,356.918z"/>
			<path id="XMLID_3310_" style="fill:#EF5D5C;" d="M187.595,372.746c0,0-1.807,0.935-0.997,2.742
				c0.81,1.808,4.051,1.184,3.927-0.81C190.4,372.683,188.331,372.13,187.595,372.746z"/>
			<path id="XMLID_3307_" style="fill:#FFDF55;" d="M271.196,339.437c0,0-1.807,0.935-0.997,2.742
				c0.81,1.808,4.052,1.184,3.927-0.81C274.001,339.375,271.932,338.822,271.196,339.437z"/>
			<path id="XMLID_3304_" style="fill:#00B0AE;" d="M305.811,379.182c0,0-1.807,0.935-0.997,2.742
				c0.81,1.808,4.051,1.184,3.927-0.81C308.616,379.12,306.547,378.566,305.811,379.182z"/>
			<path id="XMLID_3301_" style="fill:#00B0AE;" d="M303.742,344.849c0,0-1.807,0.935-0.997,2.742
				c0.81,1.808,4.052,1.184,3.927-0.81C306.547,344.786,304.478,344.233,303.742,344.849z"/>
		</g>
	</g>
	<g>
		<path style="fill:#FFFFFF;" d="M127.576,208.283c1.035,0.934,2.301,1.209,3.801,0.828c0.748-0.19,1.253-0.396,1.516-0.623
			c1.684-0.907,2.746-2.053,3.194-3.446c0.443-1.388,0.392-2.691-0.156-3.909c-0.548-1.215-1.435-2.187-2.657-2.916
			c-1.224-0.723-2.658-0.88-4.306-0.461c-1.651,0.421-2.734,1.336-3.252,2.743c-0.52,1.411-0.597,2.825-0.236,4.248
			C125.844,206.173,126.539,207.349,127.576,208.283z"/>
		<path style="fill:#FFFFFF;" d="M329.693,141.999c-0.116-0.212-0.257-0.329-0.424-0.349c-0.28-0.034-0.534,0.19-0.763,0.672
			c-0.956,2.263-2.569,4.333-4.838,6.209c-2.27,1.877-4.753,3.642-7.448,5.295c0.922-1.983,1.794-4.016,2.615-6.098
			c0.82-2.08,1.537-4.118,2.15-6.112c0.612-1.993,1.101-3.916,1.47-5.77c0.367-1.853,0.56-3.544,0.577-5.072
			c-0.024-0.739-0.442-1.372-1.256-1.896c-0.815-0.525-1.753-0.852-2.813-0.981c-1.005-0.123-1.962-0.055-2.872,0.201
			c-0.911,0.258-1.608,0.753-2.094,1.487c-0.994,1.636-1.989,3.752-2.987,6.35c-0.997,2.598-2.013,5.109-3.045,7.533
			c-1.034,2.424-2.106,4.475-3.218,6.152c-1.112,1.678-2.253,2.445-3.426,2.301c-0.224-0.027-0.415-0.079-0.576-0.155
			c-0.804-0.381-1.145-1.301-1.022-2.76c0.121-1.458,0.449-3.217,0.985-5.277c0.535-2.06,1.177-4.304,1.928-6.735
			c0.75-2.429,1.32-4.782,1.713-7.058c0.13-0.607-0.149-1.109-0.836-1.505c-0.688-0.395-1.507-0.652-2.456-0.767
			c-1.173-0.144-2.356-0.089-3.547,0.161c-1.193,0.251-1.939,0.67-2.236,1.257c-1.062,2.234-1.854,4.481-2.406,6.74
			c-1.22-0.219-2.69-0.441-4.293-0.604c-0.032-0.699-0.096-1.391-0.225-2.066c-0.378-1.963-1.222-3.653-2.529-5.072
			c-1.308-1.419-3.107-2.299-5.399-2.641c-1.461-0.075-2.725,0.143-3.792,0.651c-1.07,0.509-1.992,1.195-2.767,2.055
			c-0.777,0.862-1.447,1.856-2.011,2.981c-0.564,1.126-1.076,2.298-1.531,3.512c0.138-1.626,0.254-3.324,0.345-5.094
			c0.09-1.769,0.184-3.609,0.282-5.519c0.019-0.393-0.261-0.689-0.841-0.888c-0.582-0.198-1.266-0.318-2.052-0.358
			c-0.899-0.046-1.746,0.01-2.543,0.166c-0.798,0.157-1.235,0.459-1.314,0.905c-0.548,3.013-1.052,6.254-1.51,9.723
			c-0.023,0.175-0.044,0.357-0.067,0.532c-1.05-0.125-2.642-0.273-4.512-0.312c-0.075-0.696-0.181-1.383-0.352-2.048
			c-0.501-1.936-1.446-3.571-2.838-4.906c-1.394-1.335-3.243-2.103-5.551-2.304c-1.463,0.016-2.711,0.311-3.745,0.884
			c-1.035,0.574-1.914,1.315-2.634,2.222c-0.722,0.908-1.329,1.942-1.823,3.099c-0.494,1.159-0.932,2.359-1.311,3.6
			c0.038-1.631,0.049-3.333,0.03-5.105c-0.019-1.771-0.039-3.613-0.059-5.526c-0.004-0.393-0.303-0.672-0.895-0.834
			c-0.592-0.163-1.283-0.239-2.07-0.231c-0.9,0.01-1.743,0.118-2.528,0.323c-0.786,0.206-1.204,0.534-1.255,0.984
			c-0.361,3.042-0.664,6.308-0.908,9.798c-0.107,1.522-0.201,3.07-0.291,4.629c-0.09,0.408-0.188,0.845-0.301,1.341
			c-0.376,1.639-0.876,3.316-1.501,5.03c-0.624,1.715-1.307,3.224-2.049,4.524c-0.742,1.302-1.534,1.986-2.375,2.053
			c-0.57-0.067-0.966-0.6-1.187-1.598c-0.221-0.998-0.339-2.286-0.353-3.865c-0.014-1.578,0.027-3.359,0.121-5.342
			c0.095-1.982,0.174-3.978,0.239-5.987c0.063-2.008,0.063-3.954-0.004-5.84c-0.067-1.885-0.267-3.491-0.599-4.819
			c-0.176-0.775-0.641-1.289-1.394-1.539c-0.754-0.249-1.58-0.339-2.476-0.267c-1.122,0.09-2.159,0.357-3.11,0.8
			c-0.952,0.444-1.492,0.924-1.62,1.442c-0.119,0.631-0.239,1.233-0.363,1.807c-0.123,0.575-0.217,1.175-0.279,1.8
			c-1.09-0.928-2.301-1.593-3.63-1.994c-1.331-0.401-2.724-0.543-4.182-0.426c-2.58,0.207-4.752,1.088-6.517,2.64
			c-1.767,1.553-3.125,3.425-4.078,5.618c-0.953,2.193-1.47,4.534-1.552,7.023c-0.083,2.49,0.299,4.773,1.143,6.849
			c0.56,1.378,1.337,2.582,2.294,3.642c-0.452,3.23-1.558,7.057-4.271,7.347c-4.933,0.527-5.053-6.904-5.129-7.46
			c-0.071-1.265-0.134-2.632-0.188-4.129c-0.095-2.635-0.201-5.511-0.319-8.628c-0.119-3.115-0.263-6.228-0.437-9.336l1.581-0.262
			c0.388-0.064,0.55-0.376,0.487-0.936c-0.065-0.558-0.319-0.802-0.763-0.729l-1.415,0.235c-0.229-3.782-0.568-7.289-1.018-10.522
			c-0.45-3.232-1.046-5.698-1.784-7.402c-0.249-0.471-0.784-0.768-1.601-0.889c-0.82-0.121-1.7-0.103-2.643,0.054
			c-0.832,0.138-1.524,0.243-2.374,0.551c-0.687,0.249-1.419,0.568-1.456,1.029c-0.113,2.414,0.372,5.508,0.375,8.786
			c0.001,3.279,0.075,6.731,0.221,10.355c-2.146,0.471-4.348,0.949-6.604,1.437c-2.257,0.49-4.477,1.029-6.659,1.618
			c-0.441-3.69-0.898-7.134-1.372-10.335c-0.474-3.199-0.877-5.628-1.208-7.283c-0.12-0.378-0.697-0.597-1.733-0.653
			c-1.036-0.056-2.109,0.008-3.218,0.192c-0.944,0.156-1.748,0.375-2.414,0.657c-0.667,0.282-1,0.593-0.999,0.936
			c0.027,0.509,0.086,1.383,0.178,2.622c0.09,1.24,0.197,2.734,0.315,4.48c0.119,1.748,0.251,3.666,0.398,5.75
			c0.146,2.086,0.316,4.224,0.508,6.416l-1.623,0.526c-0.158,0.084-0.249,0.227-0.271,0.43c-0.024,0.204-0.006,0.4,0.055,0.589
			c0.059,0.191,0.172,0.356,0.34,0.499c0.165,0.144,0.328,0.174,0.485,0.091l1.221-0.374c0.165,2.025,0.345,4.063,0.543,6.11
			c0.197,2.05,0.377,4,0.544,5.854c0.164,1.854,1.069,8.111,1.272,9.673c0.202,1.564,0.396,2.9,0.579,4.009
			c0.083,0.499,0.586,0.788,1.512,0.861c0.924,0.075,1.914,0.025,2.968-0.15c0.943-0.156,1.817-0.387,2.622-0.692
			c0.805-0.304,1.225-0.687,1.263-1.15c0.176-0.998,0.256-2.322,0.239-3.974c-0.017-1.65-0.8-8.026-0.905-10.034
			c-0.105-2.006-0.26-4.148-0.466-6.423c-0.206-2.275-0.439-4.531-0.695-6.769c2.081-0.516,4.244-1.046,6.493-1.59
			c2.247-0.543,4.472-1.054,6.673-1.534c0.191,2.876,0.448,5.714,0.77,8.511c0.321,2.799,0.731,5.438,1.228,7.921
			c0.363,1.814,0.798,3.492,1.299,5.039l-0.002,0c0.366,1.712,1.412,4.181,3.052,6.222c0.056,0.07,0.108,0.152,0.164,0.22
			c0.025,0.028,0.061,0.043,0.087,0.07c1.615,1.899,3.756,3.364,6.363,3.364c0.403,0,2.179-0.082,2.614-0.13
			c4.101-0.457,5.971-5.309,6.821-9.485c1.728,1.298,3.912,1.899,6.556,1.798c1.289-0.104,2.383-0.53,3.283-1.28
			c0.899-0.749,1.657-1.656,2.278-2.722c0.62-1.065,1.105-2.218,1.458-3.461c0.351-1.241,0.655-2.38,0.911-3.417
			c0.206,1.169,0.519,2.427,0.938,3.776c0.418,1.35,0.995,2.559,1.73,3.628c0.734,1.07,1.623,1.944,2.665,2.622
			c1.041,0.678,2.32,0.957,3.834,0.835c1.626-0.131,3.031-0.893,4.218-2.286c1.186-1.393,2.196-3.04,3.031-4.942
			c0.303-0.689,0.572-1.392,0.825-2.1c-0.141,3.422-0.249,6.844-0.316,10.265c-0.074,3.685-0.091,7.215-0.055,10.59
			c0.005,0.506,0.36,0.882,1.067,1.127c0.705,0.246,1.48,0.364,2.324,0.355c0.899-0.009,1.728-0.145,2.485-0.406
			c0.757-0.261,1.188-0.618,1.296-1.069c0.317-1.916,0.586-4.352,0.808-7.307c0.221-2.946,0.482-6.047,0.783-9.3
			c0.399,0.313,0.744,0.459,0.817,0.488l0.003-0.008c0.416,0.207,0.861,0.357,1.344,0.435c0.816,0.132,1.619,0.194,2.407,0.186
			c2.643-0.029,4.915-0.671,6.814-1.929c1.898-1.257,3.414-2.821,4.549-4.69c1.131-1.868,1.857-3.901,2.17-6.099
			c0.099-0.694,0.143-1.371,0.161-2.039c1.726,0.041,3.195,0.174,4.165,0.285c-0.332,2.647-0.649,5.331-0.938,8.091
			c-0.385,3.67-0.727,7.342-1.028,11.015c-0.301,3.673-0.537,7.196-0.709,10.567c-0.026,0.506,0.305,0.902,0.995,1.191
			c0.689,0.289,1.455,0.454,2.298,0.498c0.899,0.046,1.734-0.038,2.506-0.253c0.771-0.214,1.223-0.543,1.36-0.986
			c0.435-1.894,0.854-4.308,1.257-7.244c0.397-2.891,0.845-5.933,1.338-9.118c0.205,0.177,0.435,0.302,0.683,0.339
			c0.435,0.27,0.911,0.473,1.438,0.591c0.807,0.182,1.603,0.293,2.391,0.333c2.64,0.135,4.947-0.367,6.92-1.505
			c1.972-1.138,3.583-2.605,4.83-4.4c1.245-1.795,2.094-3.78,2.543-5.953c0.142-0.689,0.228-1.363,0.287-2.03
			c1.449,0.155,2.783,0.358,3.905,0.556c-0.448,2.553-0.541,4.925-0.252,7.1c0.31,2.333,1.047,4.293,2.214,5.881
			c1.166,1.587,2.802,2.567,4.911,2.938c2.01,0.246,3.703-0.17,5.083-1.248c1.377-1.078,2.56-2.408,3.547-3.987
			c-0.539,2.088-1.087,4.132-1.642,6.132c-0.556,2-1.08,3.849-1.571,5.546c-1.038,0.609-1.97,1.175-2.799,1.698
			c-0.829,0.521-1.504,1.062-2.026,1.622c-0.766,0.699-1.193,1.413-1.282,2.139c-0.088,0.725,0.015,1.375,0.315,1.951
			c0.297,0.575,0.776,1.058,1.438,1.451c0.659,0.392,1.353,0.633,2.079,0.722c0.615,0.075,1.241,0.037,1.883-0.11
			c0.641-0.149,1.216-0.446,1.725-0.894c1.441-1.128,2.92-2.803,4.44-5.025c1.517-2.223,2.985-4.722,4.401-7.495
			c1.65-0.988,3.276-2.007,4.879-3.059c1.601-1.05,3.08-2.144,4.439-3.282c1.357-1.138,2.52-2.313,3.491-3.526
			c0.969-1.213,1.645-2.447,2.025-3.705C329.821,142.454,329.809,142.212,329.693,141.999z M213.542,136.508
			c-0.304,2.536-0.705,4.924-1.202,7.165c-0.497,2.241-1.078,4.15-1.741,5.727c-0.665,1.577-1.472,2.403-2.425,2.48
			c-0.113,0.009-0.184,0.002-0.214-0.025c-0.031-0.026-0.102-0.034-0.214-0.025c-0.804-0.161-1.423-0.859-1.861-2.094
			c-0.438-1.234-0.713-2.721-0.824-4.462c-0.112-1.74-0.065-3.606,0.143-5.598c0.207-1.991,0.566-3.84,1.078-5.546
			c0.511-1.705,1.189-3.113,2.031-4.226c0.841-1.112,1.797-1.682,2.868-1.712c1.182-0.038,2.212,0.5,3.092,1.614
			C214.09,131.738,213.846,133.973,213.542,136.508z M242.748,132.83c0.625-1.947,1.382-3.502,2.271-4.665
			c0.886-1.161,1.949-1.75,3.187-1.764l0.338-0.004c0.845,0.104,1.455,0.716,1.834,1.837c0.377,1.122,0.546,2.512,0.509,4.171
			c-0.014,0.623-0.063,1.268-0.129,1.923c-3.686,0.693-7.264,2.166-9.397,5.089c-0.066,0.091-0.119,0.175-0.183,0.265
			c0.013-0.084,0.025-0.172,0.038-0.255C241.611,136.977,242.121,134.777,242.748,132.83z M248.595,143.019
			c-0.687,1.64-1.473,2.999-2.361,4.076c-0.889,1.079-1.867,1.623-2.936,1.635l-0.422,0.004c-0.512-0.075-0.984-0.246-1.421-0.502
			c-0.116-0.06-0.646-0.37-0.855-1.175c-0.218-0.838-0.19-2.785,2.451-6.403c1.64-2.246,4.416-3.477,7.404-4.124
			c-0.07,0.395-0.143,0.793-0.23,1.199C249.824,139.618,249.28,141.381,248.595,143.019z M273.303,133.309
			c0.743-1.905,1.595-3.41,2.554-4.516c0.956-1.105,2.053-1.627,3.29-1.564l0.336,0.017c0.837,0.156,1.409,0.805,1.717,1.946
			c0.308,1.143,0.391,2.541,0.251,4.195c-0.047,0.555-0.124,1.125-0.213,1.703c-3.829,0.327-7.474,1.416-9.693,3.97
			C272.052,136.94,272.635,135.015,273.303,133.309z M278.51,143.84c-0.786,1.594-1.657,2.902-2.608,3.922
			c-0.954,1.022-1.965,1.505-3.032,1.45l-0.421-0.021c-0.77-0.162-1.437-0.533-2.007-1.102c-0.681-0.903-0.774-3.259,2.465-7.41
			c1.677-2.149,4.659-3.125,7.925-3.468c-0.11,0.476-0.232,0.958-0.368,1.448C279.947,140.521,279.295,142.248,278.51,143.84z
			 M303.252,164.65c-0.25,0.649-0.458,1.19-0.624,1.624c-0.306,0.643-0.709,0.934-1.212,0.872c-0.392-0.048-0.683-0.325-0.876-0.83
			c-0.193-0.506-0.064-0.986,0.389-1.44c0.327-0.357,0.755-0.73,1.284-1.118c0.529-0.39,1.131-0.797,1.808-1.224
			C303.757,163.295,303.501,164.001,303.252,164.65z"/>
		<path style="fill:#FFFFFF;" d="M418.954,247.603c-0.093-0.315-0.245-0.502-0.456-0.584c-0.362-0.128-0.759,0.094-1.192,0.666
			c-1.916,2.711-4.639,4.977-8.167,6.788c-3.529,1.823-7.302,3.435-11.333,4.849c1.788-2.348,3.517-4.779,5.199-7.291
			c1.682-2.5,3.213-4.989,4.592-7.431c1.379-2.454,2.57-4.849,3.587-7.186c1.016-2.337,1.764-4.51,2.22-6.52
			c0.175-0.982-0.187-1.928-1.11-2.851c-0.923-0.935-2.068-1.636-3.423-2.103c-1.285-0.456-2.57-0.643-3.844-0.561
			c-1.274,0.082-2.337,0.526-3.19,1.355c-1.776,1.869-3.692,4.37-5.749,7.513c-2.068,3.131-4.125,6.157-6.181,9.055
			c-2.056,2.898-4.054,5.281-6.006,7.174c-1.939,1.893-3.669,2.582-5.176,2.056c-0.28-0.105-0.526-0.234-0.713-0.374
			c-0.946-0.736-1.133-2.045-0.549-3.926c0.573-1.893,1.507-4.113,2.804-6.672c1.297-2.559,2.793-5.34,4.475-8.319
			c1.694-2.991,3.12-5.924,4.288-8.81c0.339-0.771,0.117-1.507-0.678-2.232c-0.794-0.713-1.799-1.285-3.014-1.706
			c-1.496-0.526-3.073-0.795-4.72-0.806c-1.636-0.012-2.746,0.327-3.306,1.005c-2.489,3.236-4.487,6.59-5.994,10.083
			c-0.549,1.297-0.993,2.559-1.379,3.797c-0.175,0.327-0.351,0.643-0.561,1.005c-1.098,1.986-2.383,3.973-3.832,5.947
			c-1.46,1.986-2.909,3.681-4.358,5.094c-1.449,1.402-2.734,1.986-3.844,1.764c-0.713-0.304-1.028-1.145-0.935-2.524
			c0.082-1.367,0.421-3.085,0.993-5.129c0.584-2.056,1.297-4.346,2.173-6.882c0.865-2.524,1.718-5.083,2.559-7.653
			c0.841-2.582,1.577-5.094,2.197-7.571c0.631-2.465,0.97-4.615,1.04-6.461c0.07-1.075-0.339-1.904-1.215-2.512
			c-0.888-0.608-1.928-1.04-3.108-1.285c-1.484-0.304-2.933-0.351-4.335-0.129c-1.39,0.21-2.278,0.631-2.641,1.25
			c-0.386,0.771-0.771,1.507-1.145,2.208c-0.374,0.689-0.724,1.437-1.04,2.22c-1.063-1.612-2.384-2.933-3.949-3.949
			c-1.577-1.016-3.318-1.729-5.258-2.126c-3.412-0.701-6.555-0.385-9.429,0.958c-2.874,1.355-5.34,3.26-7.396,5.737
			c-2.056,2.489-3.61,5.316-4.662,8.518c-0.444,1.379-0.771,2.746-0.958,4.101c-0.876,1.694-1.823,3.271-2.839,4.709
			c-1.157,1.601-2.267,2.898-3.353,3.902c-1.087,0.993-2.045,1.461-2.874,1.379c-0.082-0.012-0.152-0.035-0.222-0.082
			c-0.07-0.047-0.152-0.07-0.222-0.082c-0.806-0.374-1.192-1.46-1.168-3.248c0.012-1.788,0.245-4.113,0.666-6.964
			c0.432-2.863,1.005-6.192,1.718-10.013c0.273-1.466,0.531-2.984,0.775-4.553c0.844-5.448,2.471-10.741,4.614-15.821
			c0.361-0.856,0.711-1.706,1.049-2.55c1.355-3.377,2.337-6.426,2.944-9.148c0.608-2.722,0.736-4.989,0.374-6.823
			c-0.35-1.823-1.344-2.968-2.979-3.423c-0.292-0.105-0.748-0.187-1.344-0.245c-2.348-0.234-4.522,0.549-6.52,2.337
			c-1.998,1.788-3.797,4.241-5.398,7.361c-1.601,3.131-2.956,6.695-4.066,10.702c-1.11,4.008-1.986,8.144-2.629,12.432
			c-0.549-0.584-1.262-1.11-2.138-1.577c-1.309-0.584-2.57-0.935-3.786-1.051c-2.185-0.21-4.288,0.21-6.286,1.273
			c-2.01,1.063-3.774,2.512-5.281,4.346c-1.519,1.834-2.722,3.938-3.634,6.286c-0.923,2.348-1.437,4.697-1.542,7.045v0.035
			c-0.105,0.339-0.199,0.666-0.304,1.005c-0.526,1.682-1.075,3.353-1.671,5.024c-0.596,1.671-1.203,3.19-1.834,4.568
			c-0.643,1.367-1.25,2.477-1.858,3.307c-0.596,0.841-1.168,1.227-1.694,1.157c-0.841-0.07-1.297-0.97-1.39-2.722
			c-0.094-1.741-0.07-3.938,0.058-6.602c0.129-2.652,0.222-5.515,0.28-8.588c0.047-3.073-0.187-5.994-0.701-8.763
			c-0.514-2.757-1.449-5.141-2.781-7.139c-1.344-1.998-3.388-3.213-6.122-3.645c-0.456-0.082-0.911-0.129-1.367-0.164
			c-0.456-0.035-0.911-0.047-1.367-0.047c-2.126,0.012-3.973,0.467-5.562,1.355c-1.589,0.876-2.979,2.127-4.183,3.727
			c-1.204,1.601-2.208,3.493-3.026,5.655c-0.818,2.173-1.519,4.51-2.103,7.022c-0.187-3.949-0.386-7.968-0.608-12.058
			c-0.222-4.101-0.421-7.968-0.608-11.602c1.122-2.442,2.103-4.744,2.968-6.905c0.853-2.173,1.437-4.113,1.764-5.819
			c0.327-1.718,0.315-3.19-0.035-4.44c-0.35-1.25-1.168-2.138-2.465-2.652c-1.145-0.526-2.278-0.783-3.423-0.771
			c-2.57,0.023-4.65,1.367-6.216,4.031c-1.577,2.664-2.781,6.076-3.622,10.212c-0.841,4.148-1.309,8.74-1.425,13.775
			c-0.117,5.047,0.023,9.943,0.397,14.675c0.023,0.269,0.059,0.526,0.07,0.794c-0.339,1.425-0.829,3.131-1.484,5.129
			c-0.853,2.582-1.928,5.083-3.201,7.513c-1.285,2.43-2.711,4.545-4.276,6.344c-1.554,1.811-3.131,2.781-4.72,2.909
			c-0.152,0.012-0.269,0-0.339-0.023c-0.082-0.035-0.199-0.047-0.351-0.035c-1.227-0.129-2.01-1.577-2.36-4.37
			c-0.35-2.781-0.432-6.298-0.245-10.539c0.175-4.241,0.526-8.915,1.052-14.021c0.526-5.106,0.981-10.025,1.344-14.78l7.63-1.542
			c0.748-0.222,0.993-0.701,0.748-1.437c-0.257-0.736-0.724-1.087-1.402-1.028l-0.234,0.023l-6.613,1.355
			c0.315-4.37,0.514-8.225,0.572-11.59c0.059-3.353-0.269-5.713-0.993-7.104c-0.35-0.584-0.97-0.97-1.869-1.157
			c-0.901-0.202-1.887-0.247-2.969-0.16c-1.102,0.089-2.196,0.327-3.249,0.665c-0.751,0.241-1.368,0.494-1.864,0.758l0,0
			c0,0-3.652,1.386-4.431,5.476c-0.779,4.089,1.563,6.15,0.926,14.23l0.009-0.015c-0.053,0.589-0.114,1.186-0.164,1.771
			l-5.386,1.133c-0.818,0.222-1.203,0.713-1.133,1.46c0.058,0.76,0.432,1.11,1.11,1.052l0.339-0.023l4.826-0.981
			c-0.491,6.894-0.678,13.074-0.561,18.542c0.012,0.876,0.047,1.717,0.082,2.547c-0.257,1.939-0.666,4.019-1.238,6.251
			c-0.724,2.816-1.554,5.445-2.489,7.91c-0.935,2.465-1.904,4.545-2.886,6.251c0,0-0.082,0.14-0.234,0.374
			c-0.269,0.409-0.748,1.075-1.355,1.741c-1.355,1.507-3.353,2.944-4.989,1.016c-1.706-2.01,0.058-7.454,1.858-12.069
			c9.02-18.484-1.355-20.202-1.355-20.202v0.012c-0.514-0.187-1.087-0.35-1.741-0.491c-1.472-0.292-3.131-0.491-5.001-0.608
			c-1.858-0.105-3.879-0.199-6.041-0.257c-2.161-0.07-4.3-0.187-6.403-0.386c-0.257-1.951-0.619-3.797-1.098-5.526
			c-0.479-1.718-1.075-3.225-1.776-4.487c-0.713-1.262-1.612-2.29-2.711-3.073c-1.087-0.771-2.337-1.203-3.727-1.273
			c-1.016-0.07-1.963-0.023-2.862,0.128c-1.951,0.327-3.54,1.122-4.791,2.407c-1.25,1.285-1.659,2.968-1.238,5.059
			c0.257,1.495,0.748,2.757,1.496,3.786c0.748,1.028,1.717,1.869,2.898,2.512c0.035,6.227,0.304,12.467,0.818,18.729
			c0.023,0.386,0.07,0.783,0.105,1.168c-0.07,1.297-0.175,2.617-0.351,3.961c-0.304,2.348-0.736,4.51-1.285,6.496
			c-0.549,1.975-1.168,3.622-1.858,4.931c-0.678,1.309-1.425,2.068-2.232,2.267c-0.304,0.082-0.491,0.094-0.584,0.035
			c-0.479-0.035-0.876-0.619-1.203-1.753c-0.327-1.122-0.619-2.582-0.876-4.358c-0.257-1.764-0.526-3.75-0.818-5.947
			c-0.28-2.197-0.619-4.463-1.017-6.788c-0.397-2.325-0.9-4.604-1.507-6.835c-0.607-2.232-1.355-4.218-2.267-5.947
			c-0.561-0.946-1.379-1.542-2.454-1.776c-1.075-0.234-2.243-0.199-3.482,0.117c-1.332,0.339-2.535,0.958-3.645,1.869
			c-1.098,0.911-1.647,1.986-1.636,3.236c0,0.374,0.023,0.748,0.035,1.122l-0.023-0.035c-0.666,7.84-2.313,12.42-3.61,14.92
			c-0.234-2.337-0.759-4.533-1.601-6.578c-0.993-2.384-2.43-4.453-4.358-6.157c-4.59-4.056-10.422-3.482-12.49-2.734
			c-0.362,0.14-0.736,0.269-1.122,0.409c-0.397,0.152-0.759,0.315-1.087,0.514c0.689-1.215,1.25-2.407,1.671-3.564
			c0.421-1.168,0.748-2.43,0.981-3.809c0.421-2.173,0.362-4.089-0.163-5.76c-0.526-1.659-1.297-3.026-2.337-4.113
			c-1.04-1.075-2.267-1.788-3.692-2.162c-1.425-0.374-2.816-0.315-4.171,0.187c-1.285,0.456-2.325,1.145-3.131,2.045
			c-0.806,0.888-1.425,1.893-1.881,2.979c-0.456,1.087-0.771,2.278-0.946,3.552c-0.187,1.273-0.257,2.512-0.222,3.715
			c-0.736-2.232-1.402-4.218-1.986-5.935c-0.584-1.729-1.04-3.049-1.379-3.984c-0.362-0.759-1.215-1.133-2.582-1.122
			c-1.367,0.012-2.769,0.28-4.194,0.806c-0.611,0.217-1.174,0.467-1.69,0.746l0,0c0,0-0.281,0.145-0.693,0.412
			c-0.029,0.019-0.057,0.038-0.085,0.057c-1.214,0.802-3.416,2.583-3.31,4.917c0.146,3.212,2.264,4.234,5.126,13.078
			c0.002,0.005,0.003,0.009,0.004,0.015c0.261,0.933,0.53,1.887,0.811,2.869c1.18,4.16,2.489,8.518,3.891,13.051
			c1.402,4.533,2.769,8.775,4.078,12.736c1.32,3.961,2.454,7.361,3.412,10.2c0.946,2.851,1.601,4.65,1.963,5.41
			c0.327,0.678,1.122,0.981,2.383,0.888c1.25-0.094,2.594-0.397,4.019-0.923c1.285-0.467,2.395-1.005,3.342-1.636
			c0.935-0.619,1.379-1.25,1.32-1.869l-0.818-3.575c2.208,0.327,4.604,0.023,7.174-0.911c1.063-0.397,2.208-0.923,3.412-1.601
			c2.477-1.39,4.522-3.225,6.111-5.491c1.601-2.278,2.757-4.744,3.493-7.384c0.596-2.138,0.876-4.311,0.888-6.52
			c2.091-3.014,3.458-6.438,4.276-9.113c0.117,0.713,0.222,1.425,0.362,2.138c0.771,4.113,1.905,7.793,3.388,11.053
			c1.496,3.26,3.318,5.795,5.456,7.595c2.138,1.799,4.615,2.349,7.408,1.636c1.986-0.502,3.599-1.694,4.837-3.575
			c1.25-1.881,2.22-4.031,2.944-6.438c0.362-1.215,0.654-2.442,0.9-3.692c0.467,3.353,1.04,6.73,1.729,10.165
			c0.21,0.806,0.713,1.32,1.519,1.531c0.806,0.21,1.659,0.245,2.559,0.094c0.97-0.164,1.846-0.456,2.617-0.888
			c0.771-0.444,1.192-0.935,1.25-1.484c0.21-1.495,0.526-3.552,0.935-6.157c0.421-2.605,0.783-5.491,1.098-8.658
			c0.315-3.166,0.561-6.473,0.713-9.92c0.164-3.447,0.094-6.73-0.187-9.826c2.629,0.093,4.954,0.21,6.975,0.339
			c2.021,0.117,3.33,0.631,3.949,1.531c0.082,0.129,0.152,0.304,0.21,0.514c0,0,0.514,0.409,0,4.498
			c-0.514,4.054-1.753,8.903-2.243,14.617c0,0.047-0.012,0.082-0.012,0.128c-0.152,3.365-0.082,6.438,0.409,8.459
			c1.694,6.952,9.943,8.623,16.311,1.25c0.234-0.257,0.467-0.537,0.701-0.83c1.449-1.893,2.687-4.171,3.704-6.847
			c0.97-2.547,1.753-5.258,2.348-8.144c0.245,1.46,0.526,2.827,0.853,4.089c1.005,3.762,2.535,6.601,4.592,8.518
			c2.068,1.928,4.79,2.746,8.202,2.465c2.419-0.21,4.568-1.262,6.473-3.166c1.893-1.916,3.564-4.183,5.024-6.812
			c1.449-2.641,2.641-5.363,3.54-8.179c0.128-0.374,0.222-0.724,0.339-1.075c0.292,2.442,0.631,4.779,1.04,6.952
			c0.713,3.856,1.531,6.73,2.454,8.623c0.386,0.759,1.075,1.32,2.056,1.694c0.993,0.362,2.021,0.549,3.085,0.538
			c1.133-0.012,2.138-0.199,3.003-0.596c0.876-0.385,1.344-0.958,1.414-1.717c0.14-1.437,0.315-3.318,0.526-5.632
			c0.21-2.313,0.514-4.767,0.911-7.349c0.385-2.582,0.9-5.176,1.531-7.805c0.619-2.617,1.355-5.001,2.22-7.127
			c0.853-2.126,1.893-3.867,3.143-5.199c1.238-1.344,2.652-2.01,4.241-2.033c0.456,0,0.841,0.035,1.145,0.105
			c1.823,0.374,2.839,1.542,3.038,3.505c0.21,1.975,0.07,4.323-0.397,7.057c-0.467,2.734-1.028,5.678-1.694,8.833
			c-0.654,3.155-0.958,6.134-0.888,8.938c0.058,2.816,0.701,5.199,1.928,7.15c1.227,1.963,3.552,3.166,6.975,3.587
			c0.222,0,0.432,0.023,0.619,0.058c0.187,0.035,0.362,0.047,0.514,0.047c2.278-0.012,4.206-0.806,5.784-2.372
			c1.577-1.577,2.944-3.61,4.101-6.122c0.783-1.706,1.496-3.552,2.138-5.515c0.14,0.479,0.292,0.946,0.479,1.414
			c0.83,2.056,2.208,3.751,4.136,5.083c1.355,0.9,2.793,1.414,4.311,1.566c2.185,0.21,4.335-0.327,6.438-1.612
			c2.103-1.285,4.183-3.038,6.228-5.281c0.467,3.014,1.18,5.526,2.126,7.524c0.946,1.998,2.255,3.143,3.891,3.458
			c0.304,0.105,0.748,0.187,1.355,0.245c2.489,0.245,4.755-0.28,6.777-1.577c2.033-1.285,3.856-2.944,5.456-4.954
			c0.771-0.97,1.484-1.986,2.138-3.026c0.023,0.316,0.035,0.631,0.07,0.958c0.315,3.003,1.344,5.713,3.096,8.12
			c1.741,2.419,4.393,4.066,7.922,4.942c1.706,0.35,3.283,0.21,4.732-0.421c1.449-0.631,2.769-1.519,3.973-2.664
			c1.204-1.145,2.267-2.454,3.201-3.926c0.911-1.484,1.741-2.839,2.465-4.089c-0.175,1.601-0.245,3.342-0.21,5.246
			c0.035,1.904,0.327,3.692,0.876,5.351c0.538,1.659,1.367,3.131,2.454,4.393c1.098,1.273,2.652,2.115,4.65,2.535
			c2.161,0.432,4.265-0.023,6.321-1.379c2.068-1.355,3.996-3.108,5.795-5.258c1.203-1.437,2.313-2.968,3.318-4.557
			c0,0.035-0.012,0.07-0.012,0.105c-0.257,3.166,0.152,5.959,1.227,8.389c1.087,2.43,2.956,4.183,5.632,5.281
			c2.582,0.9,4.931,0.841,7.057-0.187c2.126-1.028,4.066-2.442,5.819-4.23c-1.309,2.594-2.617,5.129-3.926,7.606
			c-1.309,2.477-2.524,4.755-3.657,6.859c-1.542,0.502-2.944,0.982-4.183,1.425c-1.238,0.456-2.29,0.97-3.131,1.554
			c-1.215,0.713-1.975,1.519-2.302,2.454c-0.327,0.935-0.374,1.823-0.152,2.664c0.234,0.841,0.724,1.612,1.484,2.325
			c0.759,0.701,1.601,1.215,2.535,1.542c0.783,0.28,1.624,0.409,2.512,0.397c0.888-0.012,1.729-0.234,2.524-0.678
			c2.22-1.075,4.65-2.863,7.291-5.351c2.641-2.489,5.293-5.363,7.957-8.611c2.454-0.829,4.884-1.706,7.302-2.629
			c2.407-0.923,4.674-1.939,6.788-3.049c2.115-1.11,3.984-2.325,5.608-3.645c1.624-1.32,2.874-2.757,3.739-4.3
			C419,248.234,419.047,247.919,418.954,247.603z M315.633,188.541c0.304-2.267,0.584-4.23,0.865-5.924
			c0.28-1.682,0.572-2.991,0.888-3.914c0.327-0.923,0.666-1.367,1.051-1.32c0.596,0.128,0.935,0.701,1.028,1.694
			c0.094,1.005-0.035,2.337-0.386,4.019c-0.35,1.683-0.9,3.61-1.647,5.784c-0.748,2.185-1.659,4.51-2.734,6.999
			C315.025,193.238,315.341,190.796,315.633,188.541z M152.432,205.833c-1.227-0.946-2.01-2.127-2.313-3.54
			c-0.187-0.654-0.152-1.227,0.117-1.694c0.269-0.467,0.596-0.724,0.97-0.794c0.818-0.129,1.238,0.561,1.274,2.103L152.432,205.833z
			 M93.498,222.366c-0.175-1.145-0.409-2.711-0.689-4.709c-0.281-1.998-0.362-4.008-0.245-6.029
			c0.105-2.021,0.467-3.879,1.052-5.585c0.596-1.706,1.671-2.851,3.236-3.423c1.215-0.432,2.232-0.023,3.061,1.25
			c0.818,1.274,1.04,3.038,0.643,5.281c-0.409,1.998-1.274,4.148-2.617,6.461C96.594,217.915,95.11,220.17,93.498,222.366z
			 M95.625,230.521c0.502-0.643,1.051-1.344,1.624-2.138c0.654-0.876,1.32-1.753,2.021-2.605c0.701-0.865,1.449-1.636,2.243-2.325
			c0.795-0.701,1.624-1.203,2.477-1.507c1.005-0.362,2.045-0.385,3.131-0.047c1.262,0.35,2.419,1.273,3.493,2.781
			c1.075,1.507,1.975,3.342,2.722,5.492c0.736,2.15,1.262,4.487,1.566,6.999c0.117,0.9,0.175,1.776,0.21,2.652
			C103.593,242.906,98.148,236.445,95.625,230.521z M114.938,244.414c-0.28,2.325-0.888,4.428-1.823,6.298
			c-0.935,1.869-2.29,3.248-4.066,4.136c-0.339,0.199-0.643,0.351-0.923,0.456c-0.292,0.105-0.573,0.21-0.865,0.315
			c-1.636,0.596-3.131,0.818-4.475,0.654c-0.853-3.236-1.939-7.104-3.248-11.59c-0.619-2.127-1.25-4.3-1.904-6.508
			c6.087,6.216,14.441,4.428,17.491,3.482C115.102,242.591,115.055,243.514,114.938,244.414z M239.477,180.304
			c0.21-2.278,0.736-3.423,1.566-3.423c0.234,0,0.385,0.035,0.456,0.105c0.771,0.374,0.911,1.647,0.432,3.809
			c-0.479,2.173-1.379,4.966-2.722,8.389C239.185,185.538,239.267,182.582,239.477,180.304z M297.85,225.906
			c-1.846,2.5-3.575,4.44-5.199,5.842c-1.624,1.414-2.991,2.056-4.124,1.951c-0.152-0.012-0.245-0.047-0.28-0.082
			c-0.035-0.047-0.129-0.07-0.28-0.093c-0.736-0.292-1.204-1.157-1.402-2.594c-0.21-1.425-0.199-3.143,0.035-5.129
			c0.234-1.998,0.643-4.113,1.238-6.344c0.596-2.232,1.309-4.276,2.138-6.134c0.829-1.87,1.741-3.377,2.734-4.545
			c0.982-1.157,1.998-1.647,3.049-1.472c0.83,0.152,1.426,0.713,1.788,1.659c0.362,0.946,0.549,2.185,0.549,3.715
			C297.64,217.436,297.558,221.84,297.85,225.906z M347.238,224.633c-1.344,3.178-2.769,6.111-4.253,8.833
			c-1.484,2.711-2.956,4.966-4.405,6.753c-1.461,1.788-2.816,2.559-4.078,2.302c-0.152-0.035-0.245-0.07-0.269-0.117
			c-0.035-0.047-0.117-0.082-0.269-0.117c-0.981-0.502-1.519-1.647-1.624-3.412c-0.094-1.764,0.105-3.786,0.619-6.087
			c0.514-2.29,1.274-4.685,2.29-7.197c1.017-2.489,2.185-4.755,3.493-6.765c1.297-2.021,2.711-3.587,4.218-4.709
			c1.507-1.122,2.956-1.507,4.358-1.133c1.542,0.386,2.676,1.472,3.4,3.248C349.75,218.674,348.593,221.467,347.238,224.633z
			 M377.616,269.861c-0.514,0.783-0.946,1.437-1.285,1.951c-0.584,0.759-1.203,1.028-1.846,0.806
			c-0.502-0.175-0.806-0.619-0.923-1.344c-0.105-0.724,0.199-1.32,0.935-1.788c0.526-0.374,1.203-0.748,2.01-1.098
			c0.806-0.362,1.717-0.736,2.734-1.098C378.667,268.214,378.13,269.078,377.616,269.861z"/>
		<path style="fill:#FFCCDD;" d="M110.479,219.229c3.61,0.42,8.994,2.811,11.294,9.152c0,0,1.278,3.627,0.767,3.59
			c-0.511-0.036-2.252-5.337-5.221-7.704c-5.039-4.016-9.53-3.615-10.223-4.272C106.401,219.339,108.388,218.986,110.479,219.229z"
			/>
		<path style="fill:#FFCCDD;" d="M102.969,202.798c1.185,1.064,2.373,2.337,2.702,5.769c0.329,3.432-0.986,7.522-1.351,6.901
			c-0.365-0.621,0.566-5.606,0.026-7.85c-0.72-2.994-3.276-4.194-3.13-5.164C101.363,201.484,102.637,202.5,102.969,202.798z"/>
		<path style="fill:#FFCCDD;" d="M130.244,198.612c0,0,2.738-0.475,4.308,1.826c1.57,2.3,0.913,4.674-0.146,5.805
			c-1.059,1.132-0.146-1.972-0.402-3.359s-0.905-2.626-2.702-3.104c-1.375-0.365-3.104,0.913-3.432,0.438
			C127.542,199.744,128.637,198.867,130.244,198.612z"/>
		<path style="fill:#FFCCDD;" d="M133.567,214.373c0,0,2.885-1.059,4.564,0.84c1.68,1.899,4.418,13.217,4.454,17.927
			s-1.278-1.241-2.118-4.637c-0.84-3.396-2.208-10.976-3.25-12.232c-1.546-1.862-4.418,0.073-4.966-0.475
			S133.043,214.519,133.567,214.373z"/>
		<path style="fill:#FFCCDD;" d="M157.02,196.494c0,0,2.531,0.262,4.43,3.295c1.899,3.033,2.629,7.366,3.116,12.283
			c0.487,4.917,0.438,14.605-0.876,14.069c-1.314-0.535-0.842-13.955-1.996-18.792c-1.301-5.452-2.531-7.887-4.43-9.055
			C155.365,197.127,155.705,196.397,157.02,196.494z"/>
		<path style="fill:#FFCCDD;" d="M186.327,213.144c0,0,2.142,1.168,2.58,4.138c0.438,2.97-2.239,12.171-3.067,12.609
			c-0.828,0.438,1.752-9.006,1.558-11.002c-0.195-1.996-0.474-3.992-1.722-5.014C184.428,212.852,185.602,212.595,186.327,213.144z"
			/>
		<path style="fill:#FFCCDD;" d="M211.616,176.049c0,0,1.098,4.202,0.527,10.174c-0.57,5.972-2.007,30.766-3.195,27.071
			c-1.188-3.694,1.55-22.283,1.557-26.178c0.011-5.621,0.238-6.933-0.401-9.586C209.464,174.879,211.306,174.45,211.616,176.049z"/>
		<path style="fill:#FFCCDD;" d="M260.909,203.115c0,0,3.505,2.872,4.625,8.812c1.12,5.939,1.363,16.211,0.584,14.848
			s-1.591-13.777-2.378-16.698c-0.787-2.921-2.685-5.452-4.097-6.475C258.232,202.579,259.059,201.849,260.909,203.115z"/>
		<path style="fill:#FFCCDD;" d="M311.47,205.16c0,0,0.112,2.823-1.446,11.099c-1.558,8.276-1.649,13.632-2.136,13.827
			c-0.487,0.195-2.239,2.617,0-11.495c2.239-14.112,1.537-11.806,2.121-13.43C310.594,203.535,311.65,203.615,311.47,205.16z"/>
		<path style="fill:#FFCCDD;" d="M363.539,210.909c0,0,0.824,0.349,0.453,3.169c-0.371,2.82-1.832,7.478-2.619,10.488
			c-0.787,3.01-2.54,9.978-3.569,10.551s0.251-3.016,0.884-5.346s2.782-9.781,3.292-11.966c0.51-2.185,0.851-4.519,0.789-5.493
			C362.707,211.338,362.865,210.196,363.539,210.909z"/>
		<path style="fill:#FFCCDD;" d="M386.852,225.764c0,0-4.868,9.542-6.572,12.56c-1.704,3.018-3.456,7.546-3.895,7.254
			c-0.438-0.292-0.243-1.363,1.266-4.722c1.509-3.359,6.378-12.985,7.4-14.501C386.073,224.839,387.764,223.983,386.852,225.764z"/>
		<path style="fill:#FFCCDD;" d="M411.486,229.404c0,0,1.217,0.828,0.243,3.067c-0.974,2.239-4.673,10.175-8.033,15.433
			c-3.359,5.258-6.962,11.295-7.643,10.905c-0.681-0.389,3.603-7.254,5.745-11.002c2.142-3.748,7.984-14.41,8.422-15.238
			C410.658,231.741,410.707,228.82,411.486,229.404z"/>
		<path style="fill:#FFCCDD;" d="M160.393,116.167c0,0,1.471,9.956,2.128,15.871c0.657,5.915,1.68,10.661,1.095,12.706
			c-0.584,2.045-1.022,0.511-1.972-6.645c-0.949-7.156-2.41-20.447-2.556-21.615C158.943,115.315,160.179,114.701,160.393,116.167z"
			/>
		<path style="fill:#FFCCDD;" d="M221.719,123.372c0,0,1.314,0.925,1.314,3.31c0,2.385-0.341,15.481-0.657,15.043
			c-0.316-0.438-1.095,0.584-0.852-7.156c0.243-7.741-0.195-9.931-0.389-10.662S221.246,122.875,221.719,123.372z"/>
		<path style="fill:#FFCCDD;" d="M321.488,130.247c0,0,1.009,1.251,0.353,3.544c-0.656,2.293-4.587,14.79-4.771,14.282
			c-0.184-0.508-1.214,0.26,1.15-7.115c2.364-7.375,2.545-9.602,2.559-10.357C320.792,129.845,321.17,129.639,321.488,130.247z"/>
		<path style="fill:#FFCCDD;" d="M252.633,126.397c0,0,3.579,2.499,4.187,6.273c0.682,4.236-0.73,9.125-1.558,9.066
			c-0.828-0.059,0.925-5.707,0.633-8.141c-0.356-2.963-1.996-4.917-3.262-6.037C251.367,126.439,252.237,126.107,252.633,126.397z"
			/>
		<path style="fill:#FFCCDD;" d="M283.303,127.324c0,0,3.579,2.499,4.187,6.273c0.682,4.235-0.73,9.125-1.558,9.066
			c-0.828-0.059,0.925-5.707,0.633-8.141c-0.355-2.963-1.996-4.917-3.262-6.037C282.038,127.366,282.908,127.034,283.303,127.324z"
			/>
	</g>
	<g>
		<path style="fill:#FFCD01;" d="M252.659,277.593c0.059,0.977,0.234,2.101,0.604,3.406l2.072,0.018c0,0-0.398-1.276-0.522-2.787
			c5.258,0.821,6.764-4.797,4.107-6.212c-3.164-1.684-4.988,0.472-4.988,0.472s-0.454,0.445-0.826,1.449
			c-1.044-2.023-0.654-4.969-0.654-4.969l-3.231,0.676C249.222,269.646,248.5,275.792,252.659,277.593z M257.396,273.757
			c0.666,0.285,1.444,2.794-2.146,1.944c-0.09-0.021-0.166-0.059-0.251-0.087c0.228-0.798,0.653-1.492,1.398-1.906
			C256.397,273.708,256.815,273.508,257.396,273.757z"/>
		<path style="fill:#FFCD01;" d="M355.049,148.269c1.153,0.53,2.545,1.016,4.262,1.389l1.286-2.358c0,0-1.701-0.324-3.505-1.105
			c4.149-5.509-1.354-10.661-4.594-8.487c-3.857,2.588-2.506,5.99-2.506,5.99s0.232,0.791,1.153,1.829
			c-2.95-0.042-6.079-2.286-6.079-2.286l-1.2,4.106C343.866,147.346,350.451,151.923,355.049,148.269z M353.555,140.511
			c0.732-0.587,4.075,0.055,0.912,3.64c-0.08,0.09-0.169,0.154-0.252,0.234c-0.773-0.747-1.308-1.657-1.325-2.762
			C352.89,141.624,352.916,141.024,353.555,140.511z"/>
		<path style="fill:#FFFFFF;" d="M88.416,163.492c0,1.734-1.863,3.642-3.597,3.642c-1.734,0-3.139-1.908-3.139-3.642
			s1.421-2.907,3.139-3.139C86.847,160.078,88.416,161.758,88.416,163.492z"/>
		<path style="fill:#FFDF55;" d="M148.75,305.861c0,1.439-1.547,3.023-2.986,3.023c-1.439,0-2.606-1.584-2.606-3.023
			c0-1.439,1.18-2.413,2.606-2.606C147.447,303.028,148.75,304.422,148.75,305.861z"/>
		<path style="fill:#FFDF55;" d="M302.347,93.335c0,1.439-1.547,3.023-2.986,3.023c-1.439,0-2.606-1.584-2.606-3.023
			c0-1.439,1.18-2.413,2.606-2.606C301.044,90.502,302.347,91.896,302.347,93.335z"/>
		<path style="fill:#FFFFFF;" d="M141.418,96.7c0,1.734-1.863,3.642-3.597,3.642c-1.734,0-3.139-1.908-3.139-3.642
			c0-1.734,1.421-2.907,3.139-3.139C139.848,93.287,141.418,94.966,141.418,96.7z"/>
		<path style="fill:#FFFFFF;" d="M402.814,188.951c0,1.704-1.831,3.579-3.535,3.579c-1.704,0-3.085-1.875-3.085-3.579
			c0-1.704,1.396-2.857,3.085-3.085C401.272,185.597,402.814,187.248,402.814,188.951z"/>
		<path style="fill:#FFFFFF;" d="M368.948,291.827c0,1.704-1.831,3.579-3.535,3.579c-1.704,0-3.085-1.875-3.085-3.579
			s1.396-2.857,3.085-3.085C367.406,288.474,368.948,290.124,368.948,291.827z"/>
		<path style="fill:#FFFFFF;" d="M193.896,296.117c0,1.734-1.863,3.642-3.597,3.642c-1.734,0-3.139-1.908-3.139-3.642
			c0-1.734,1.421-2.907,3.139-3.139C192.327,292.703,193.896,294.383,193.896,296.117z"/>
		<path style="fill:#FFCCDD;" d="M87.174,287.064c0,1.094-1.176,2.298-2.27,2.298s-1.981-1.204-1.981-2.298
			c0-1.094,0.897-1.835,1.981-1.981C86.183,284.91,87.174,285.97,87.174,287.064z"/>
		<path style="fill:#FFCCDD;" d="M272.184,179.218c0,1.094-1.176,2.298-2.27,2.298c-1.094,0-1.981-1.204-1.981-2.298
			c0-1.094,0.897-1.835,1.981-1.981C271.193,177.064,272.184,178.124,272.184,179.218z"/>
		<path style="fill:#FFCCDD;" d="M319.74,108.326c0,1.094-1.176,2.298-2.27,2.298c-1.094,0-1.981-1.204-1.981-2.298
			s0.897-1.835,1.981-1.981C318.749,106.172,319.74,107.232,319.74,108.326z"/>
		<path style="fill:#FFCCDD;" d="M328.255,264.669c0,1.751-1.881,3.677-3.632,3.677c-1.751,0-3.17-1.927-3.17-3.677
			c0-1.751,1.435-2.935,3.17-3.17C326.671,261.223,328.255,262.918,328.255,264.669z"/>
		<path id="XMLID_991_" style="fill:#EF5D5C;" d="M113.47,134.033l3.648-1.933c0.42-0.198,0.886,0.172,0.788,0.626l-1.087,3.969
			c-0.039,0.181,0.013,0.369,0.14,0.503l2.533,2.692c0.319,0.339,0.111,0.895-0.352,0.942l-3.678,0.373
			c-0.184,0.019-0.347,0.127-0.435,0.289l-1.9,3.909c-0.239,0.732-0.734,0.61-0.922,0.185l-1.453-4.278
			c-0.074-0.169-0.227-0.291-0.408-0.325l-4.291-0.593c-0.457-0.087-0.405-0.473-0.058-0.782l3.204-2.747
			c0.137-0.123,0.206-0.306,0.183-0.489l-0.886-4.153c-0.059-0.461,0.437-0.789,0.839-0.555l3.614,2.345
			C113.108,134.103,113.303,134.112,113.47,134.033z"/>
		<path id="XMLID_61_" style="fill:#00B0AE;" d="M299.642,251.054l2.358,0.63c0.262,0.083,0.315,0.43,0.09,0.588l-2.067,1.282
			c-0.09,0.063-0.143,0.165-0.142,0.274l0.015,2.185c0.002,0.275-0.312,0.432-0.531,0.267l-1.743-1.317
			c-0.087-0.066-0.201-0.085-0.305-0.05l-2.395,0.93c-0.398,0.221-0.563-0.031-0.474-0.291l1.091-2.438
			c0.036-0.103,0.018-0.217-0.046-0.305l-1.621-1.983c-0.163-0.221,0.015-0.367,0.289-0.362l2.493,0.098
			c0.109,0.002,0.212-0.05,0.276-0.138l1.286-2.156c0.16-0.223,0.507-0.166,0.587,0.097l0.623,2.469
			C299.457,250.939,299.538,251.021,299.642,251.054z"/>
		<path id="XMLID_63_" style="fill:#00B0AE;" d="M252.146,93.971l3.902,0.174c0.438,0.04,0.64,0.565,0.342,0.888l-2.79,2.715
			c-0.118,0.128-0.166,0.307-0.127,0.477l0.774,3.411c0.098,0.429-0.339,0.783-0.739,0.6l-3.178-1.46
			c-0.159-0.073-0.343-0.063-0.493,0.026l-3.424,2.276c-0.546,0.483-0.891,0.145-0.84-0.292l0.867-4.185
			c0.02-0.173-0.046-0.346-0.177-0.461l-3.215-2.542c-0.331-0.29-0.103-0.579,0.328-0.665l3.93-0.703
			c0.171-0.034,0.314-0.151,0.383-0.311l1.269-3.812c0.173-0.404,0.735-0.434,0.95-0.051l1.822,3.646
			C251.817,93.855,251.972,93.955,252.146,93.971z"/>
		<path id="XMLID_29_" style="fill:#FFDF55;" d="M362.14,171.389l3.296,2.487c0.358,0.297,0.22,0.875-0.233,0.979l-4.056,0.695
			c-0.18,0.041-0.328,0.168-0.397,0.339l-1.366,3.435c-0.172,0.432-0.764,0.48-1.003,0.08l-1.895-3.174
			c-0.095-0.159-0.261-0.26-0.446-0.272l-4.345-0.066c-0.765,0.094-0.863-0.407-0.557-0.757l3.26-3.128
			c0.122-0.139,0.167-0.329,0.121-0.508l-1.28-4.139c-0.115-0.45,0.257-0.567,0.684-0.384l3.845,1.74
			c0.169,0.072,0.364,0.057,0.52-0.042l3.387-2.561c0.393-0.248,0.9,0.062,0.858,0.525l-0.595,4.267
			C361.923,171.091,361.997,171.271,362.14,171.389z"/>
		<path id="XMLID_59_" style="fill:#FFDF55;" d="M182.447,274.067l5.876-0.071c0.661,0.023,1.009,0.794,0.589,1.305l-3.96,4.315
			c-0.167,0.203-0.223,0.475-0.151,0.728l1.453,5.057c0.183,0.636-0.443,1.205-1.059,0.964l-4.898-1.922
			c-0.245-0.096-0.521-0.065-0.739,0.082l-4.949,3.71c-0.779,0.771-1.326,0.294-1.286-0.366l0.946-6.36
			c0.016-0.262-0.099-0.516-0.306-0.677l-5.045-3.545c-0.521-0.407-0.204-0.861,0.436-1.028l5.843-1.39
			c0.254-0.066,0.459-0.253,0.549-0.5l1.582-5.833c0.226-0.622,1.067-0.715,1.423-0.157l3.047,5.321
			C181.943,273.92,182.185,274.058,182.447,274.067z"/>
		<path style="fill:#00B0AE;" d="M194.712,87.507c0.142-0.963,0.201-2.093,0.106-3.438l-2.013-0.439c0,0,0.128,1.323-0.06,2.819
			c-4.95-1.87-7.561,3.292-5.262,5.21c2.736,2.284,4.951,0.556,4.951,0.556s0.532-0.341,1.099-1.243
			c0.604,2.182-0.376,4.97-0.376,4.97h3.282C196.439,95.942,198.393,90.107,194.712,87.507z M189.32,90.277
			c-0.59-0.413-0.836-3.013,2.485-1.455c0.084,0.039,0.149,0.091,0.226,0.136c-0.384,0.73-0.939,1.32-1.749,1.57
			C190.282,90.527,189.835,90.637,189.32,90.277z"/>
		<path style="fill:#00B0AE;" d="M125.216,277.289c0.884,0.406,1.953,0.779,3.27,1.066l0.987-1.809c0,0-1.305-0.248-2.689-0.848
			c3.184-4.227-1.039-8.18-3.525-6.512c-2.96,1.986-1.923,4.596-1.923,4.596s0.178,0.607,0.885,1.403
			c-2.264-0.032-4.665-1.755-4.665-1.755l-0.921,3.15C116.636,276.581,121.689,280.093,125.216,277.289z M124.07,271.337
			c0.562-0.451,3.127,0.043,0.7,2.793c-0.061,0.069-0.13,0.118-0.194,0.18c-0.593-0.574-1.003-1.272-1.017-2.119
			C123.56,272.19,123.58,271.73,124.07,271.337z"/>
		<g>
			<g>
				<g>
					<path style="fill:#FFFFFF;" d="M128.45,167.242c0.154-1.12,0.277-2.24,0.389-3.365c0.093-0.944,0.603-2.873,0.083-3.753
						c-0.232-0.392-0.722-0.327-0.966,0c-0.574,0.766-0.292,2.727-0.307,3.619c-0.019,1.132-0.023,2.26,0.004,3.391
						C127.662,167.57,128.385,167.713,128.45,167.242L128.45,167.242z"/>
				</g>
			</g>
			<g>
				<g>
					<path style="fill:#FFFFFF;" d="M130.117,168.458c0.856-0.649,1.692-1.316,2.522-1.997c0.589-0.483,1.164-0.979,1.739-1.479
						c0.36-0.313,0.822-0.631,1.05-1.063c0.212-0.402-0.151-1.046-0.653-0.849c-1.067,0.42-2.023,1.638-2.827,2.419
						c-0.788,0.766-1.566,1.536-2.324,2.332C129.322,168.138,129.736,168.747,130.117,168.458L130.117,168.458z"/>
				</g>
			</g>
			<g>
				<g>
					<path style="fill:#FFFFFF;" d="M130.288,170.489c1.143,0.155,2.286,0.28,3.434,0.393c0.974,0.096,2.915,0.609,3.826,0.087
						c0.393-0.225,0.327-0.728,0-0.966c-0.795-0.579-2.77-0.295-3.689-0.311c-1.155-0.021-2.307-0.026-3.462,0
						C129.959,169.701,129.817,170.426,130.288,170.489L130.288,170.489z"/>
				</g>
			</g>
			<g>
				<g>
					<path style="fill:#FFFFFF;" d="M129.009,171.935c0.68,0.89,1.379,1.762,2.091,2.627c0.506,0.615,1.025,1.216,1.548,1.816
						c0.327,0.376,0.656,0.85,1.104,1.096c0.396,0.218,1.054-0.157,0.849-0.653c-0.459-1.111-1.703-2.097-2.522-2.943
						c-0.799-0.825-1.603-1.64-2.431-2.436C129.329,171.138,128.718,171.555,129.009,171.935L129.009,171.935z"/>
				</g>
			</g>
			<g>
				<g>
					<path style="fill:#FFFFFF;" d="M127.09,172.684c-0.143,1.112-0.256,2.225-0.352,3.342c-0.077,0.897-0.546,2.744-0.035,3.571
						c0.239,0.386,0.718,0.332,0.966,0c0.564-0.754,0.267-2.696,0.273-3.571c0.008-1.116,0-2.227-0.039-3.342
						C127.883,172.146,127.155,172.178,127.09,172.684L127.09,172.684z"/>
				</g>
			</g>
			<g>
				<g>
					<path style="fill:#FFFFFF;" d="M125.507,171.262c-0.855,0.649-1.692,1.316-2.522,1.997c-0.589,0.483-1.164,0.98-1.739,1.479
						c-0.36,0.313-0.822,0.631-1.05,1.063c-0.212,0.402,0.151,1.046,0.653,0.849c1.067-0.42,2.023-1.638,2.827-2.419
						c0.788-0.766,1.566-1.536,2.324-2.332C126.303,171.581,125.889,170.972,125.507,171.262L125.507,171.262z"/>
				</g>
			</g>
			<g>
				<g>
					<path style="fill:#FFFFFF;" d="M125.291,169.277c-1.136-0.163-2.271-0.295-3.412-0.415c-0.967-0.102-2.895-0.627-3.802-0.111
						c-0.397,0.226-0.323,0.726,0,0.966c0.781,0.582,2.757,0.312,3.667,0.334c1.148,0.029,2.292,0.042,3.439,0.023
						C125.622,170.068,125.76,169.345,125.291,169.277L125.291,169.277z"/>
				</g>
			</g>
			<g>
				<g>
					<path style="fill:#FFFFFF;" d="M126.411,167.555c-0.649-0.856-1.317-1.692-1.997-2.522c-0.483-0.589-0.98-1.164-1.479-1.739
						c-0.313-0.36-0.631-0.822-1.063-1.05c-0.402-0.212-1.046,0.151-0.849,0.653c0.42,1.067,1.638,2.023,2.419,2.827
						c0.766,0.788,1.536,1.566,2.332,2.324C126.091,168.35,126.7,167.936,126.411,167.555L126.411,167.555z"/>
				</g>
			</g>
		</g>
		<g>
			<g>
				<g>
					<g>
						<path style="fill:#00B0AE;" d="M222.873,271.235c0.154-1.12,0.277-2.24,0.389-3.365c0.093-0.944,0.603-2.873,0.083-3.753
							c-0.232-0.392-0.722-0.327-0.966,0c-0.574,0.766-0.292,2.727-0.307,3.619c-0.019,1.132-0.023,2.259,0.004,3.391
							C222.085,271.563,222.808,271.706,222.873,271.235L222.873,271.235z"/>
					</g>
				</g>
				<g>
					<g>
						<path style="fill:#00B0AE;" d="M224.54,272.451c0.856-0.649,1.692-1.316,2.522-1.997c0.589-0.483,1.164-0.979,1.739-1.479
							c0.36-0.313,0.822-0.631,1.05-1.063c0.212-0.402-0.151-1.046-0.653-0.849c-1.067,0.42-2.024,1.638-2.827,2.419
							c-0.788,0.766-1.566,1.536-2.324,2.332C223.745,272.132,224.159,272.741,224.54,272.451L224.54,272.451z"/>
					</g>
				</g>
				<g>
					<g>
						<path style="fill:#00B0AE;" d="M224.71,274.483c1.143,0.155,2.286,0.28,3.434,0.392c0.974,0.095,2.915,0.608,3.826,0.087
							c0.393-0.225,0.327-0.728,0-0.966c-0.795-0.579-2.77-0.295-3.689-0.311c-1.155-0.021-2.307-0.026-3.462,0
							C224.382,273.694,224.24,274.419,224.71,274.483L224.71,274.483z"/>
					</g>
				</g>
				<g>
					<g>
						<path style="fill:#00B0AE;" d="M223.431,275.928c0.68,0.89,1.379,1.762,2.091,2.627c0.506,0.615,1.025,1.216,1.548,1.816
							c0.327,0.376,0.656,0.85,1.104,1.096c0.396,0.218,1.054-0.157,0.849-0.653c-0.459-1.112-1.703-2.097-2.523-2.943
							c-0.799-0.825-1.603-1.64-2.431-2.436C223.752,275.131,223.141,275.548,223.431,275.928L223.431,275.928z"/>
					</g>
				</g>
				<g>
					<g>
						<path style="fill:#00B0AE;" d="M221.512,276.677c-0.143,1.112-0.256,2.224-0.352,3.342c-0.077,0.898-0.546,2.744-0.035,3.571
							c0.239,0.386,0.718,0.332,0.966,0c0.564-0.753,0.267-2.696,0.273-3.571c0.008-1.116,0-2.227-0.039-3.342
							C222.306,276.139,221.577,276.171,221.512,276.677L221.512,276.677z"/>
					</g>
				</g>
				<g>
					<g>
						<path style="fill:#00B0AE;" d="M219.93,275.255c-0.856,0.649-1.692,1.316-2.522,1.997c-0.589,0.483-1.164,0.979-1.739,1.479
							c-0.36,0.313-0.822,0.631-1.05,1.063c-0.212,0.402,0.151,1.046,0.653,0.849c1.067-0.42,2.023-1.638,2.827-2.419
							c0.788-0.766,1.566-1.536,2.324-2.332C220.726,275.574,220.312,274.965,219.93,275.255L219.93,275.255z"/>
					</g>
				</g>
				<g>
					<g>
						<path style="fill:#00B0AE;" d="M219.714,273.27c-1.136-0.163-2.271-0.295-3.412-0.415c-0.967-0.102-2.895-0.627-3.802-0.111
							c-0.397,0.226-0.323,0.726,0,0.966c0.781,0.582,2.757,0.312,3.667,0.335c1.148,0.028,2.292,0.041,3.439,0.023
							C220.044,274.061,220.183,273.338,219.714,273.27L219.714,273.27z"/>
					</g>
				</g>
				<g>
					<g>
						<path style="fill:#00B0AE;" d="M220.833,271.548c-0.649-0.856-1.316-1.692-1.997-2.522c-0.483-0.589-0.979-1.164-1.479-1.739
							c-0.313-0.36-0.631-0.822-1.063-1.05c-0.402-0.212-1.046,0.151-0.849,0.653c0.42,1.067,1.638,2.024,2.419,2.827
							c0.766,0.788,1.536,1.566,2.332,2.324C220.514,272.344,221.123,271.929,220.833,271.548L220.833,271.548z"/>
					</g>
				</g>
			</g>
		</g>
		<g>
			<g>
				<g>
					<path style="fill:#FFFFFF;" d="M121.356,318.408c0.17-1.399,0.31-2.799,0.433-4.203c0.109-1.239,0.625-3.23,0.115-4.418
						c-0.171-0.398-0.776-0.331-0.966,0c-0.627,1.089-0.323,3.214-0.352,4.418c-0.035,1.402-0.054,2.801-0.042,4.203
						C120.548,318.945,121.294,318.914,121.356,318.408L121.356,318.408z"/>
				</g>
			</g>
			<g>
				<g>
					<path style="fill:#FFFFFF;" d="M123.535,319.902c1.045-0.818,2.069-1.658,3.088-2.508c1.063-0.886,2.598-1.847,3.342-3.042
						c0.328-0.526-0.301-1.024-0.791-0.791c-1.256,0.599-2.402,2.047-3.391,2.993c-0.954,0.913-1.898,1.831-2.824,2.772
						C122.583,319.711,123.134,320.216,123.535,319.902L123.535,319.902z"/>
				</g>
			</g>
			<g>
				<g>
					<path style="fill:#FFFFFF;" d="M123.847,322.488c1.372,0.165,2.745,0.299,4.122,0.423c1.213,0.109,3.373,0.678,4.541,0.191
						c0.415-0.173,0.594-0.764,0.134-1.023c-1.124-0.631-3.268-0.326-4.505-0.357c-1.431-0.036-2.86-0.057-4.291-0.047
						C123.31,321.68,123.341,322.428,123.847,322.488L123.847,322.488z"/>
				</g>
			</g>
			<g>
				<g>
					<path style="fill:#FFFFFF;" d="M122.275,324.393c0.858,1.09,1.737,2.159,2.627,3.223c0.933,1.116,1.93,2.694,3.174,3.49
						c0.52,0.333,1.029-0.305,0.791-0.791c-0.645-1.311-2.132-2.497-3.125-3.539c-0.952-0.999-1.911-1.988-2.892-2.958
						C122.467,323.44,121.96,323.993,122.275,324.393L122.275,324.393z"/>
				</g>
			</g>
			<g>
				<g>
					<path style="fill:#FFFFFF;" d="M119.846,325.287c-0.156,1.379-0.281,2.759-0.39,4.142c-0.095,1.212-0.593,3.203-0.072,4.358
						c0.177,0.392,0.773,0.337,0.966,0c0.615-1.073,0.292-3.176,0.309-4.358c0.02-1.382,0.025-2.761-0.002-4.142
						C120.648,324.753,119.903,324.779,119.846,325.287L119.846,325.287z"/>
				</g>
			</g>
			<g>
				<g>
					<path style="fill:#FFFFFF;" d="M117.754,323.673c-1.045,0.818-2.069,1.658-3.089,2.507c-1.063,0.886-2.598,1.847-3.342,3.042
						c-0.328,0.526,0.301,1.024,0.791,0.791c1.256-0.599,2.402-2.047,3.391-2.993c0.954-0.913,1.898-1.831,2.824-2.772
						C118.706,323.863,118.155,323.359,117.754,323.673L117.754,323.673z"/>
				</g>
			</g>
			<g>
				<g>
					<path style="fill:#FFFFFF;" d="M117.386,321.145c-1.363-0.174-2.727-0.318-4.095-0.451c-1.202-0.117-3.351-0.7-4.512-0.221
						c-0.421,0.173-0.588,0.761-0.134,1.023c1.107,0.637,3.252,0.346,4.477,0.386c1.422,0.046,2.841,0.077,4.263,0.076
						C117.924,321.957,117.889,321.209,117.386,321.145L117.386,321.145z"/>
				</g>
			</g>
			<g>
				<g>
					<path style="fill:#FFFFFF;" d="M118.759,318.897c-0.818-1.045-1.658-2.069-2.507-3.089c-0.886-1.063-1.847-2.598-3.042-3.342
						c-0.526-0.328-1.024,0.301-0.791,0.791c0.599,1.256,2.048,2.402,2.993,3.391c0.912,0.954,1.831,1.898,2.772,2.824
						C118.569,319.849,119.073,319.298,118.759,318.897L118.759,318.897z"/>
				</g>
			</g>
		</g>
		<g>
			<g>
				<g>
					<path style="fill:#FFFFFF;" d="M391.957,303.618c0.87-1.167,1.714-2.35,2.544-3.546c0.533-0.769,1.056-1.547,1.566-2.331
						c0.242-0.372,0.785-1.003,0.62-1.49c-0.07-0.207-0.278-0.418-0.519-0.395c-0.547,0.053-0.841,0.646-1.116,1.059
						c-0.528,0.794-1.031,1.61-1.527,2.424c-0.778,1.278-1.537,2.564-2.269,3.868C390.993,303.675,391.652,304.027,391.957,303.618
						L391.957,303.618z"/>
				</g>
			</g>
			<g>
				<g>
					<path style="fill:#FFFFFF;" d="M393.11,305.993c1.395-0.203,2.783-0.437,4.171-0.685c1.158-0.207,3.361-0.227,4.289-1.048
						c0.328-0.29,0.13-0.81-0.245-0.929c-1.154-0.366-3.25,0.542-4.364,0.816c-1.362,0.335-2.717,0.683-4.067,1.063
						C392.377,305.355,392.607,306.067,393.11,305.993L393.11,305.993z"/>
				</g>
			</g>
			<g>
				<g>
					<path style="fill:#FFFFFF;" d="M392.091,308.391c1.192,0.887,2.401,1.747,3.623,2.594c0.785,0.544,1.58,1.077,2.381,1.598
						c0.384,0.25,1.01,0.79,1.511,0.634c0.203-0.063,0.425-0.284,0.395-0.519c-0.07-0.556-0.65-0.843-1.077-1.127
						c-0.811-0.539-1.644-1.053-2.475-1.56c-1.304-0.796-2.617-1.572-3.948-2.321C392.034,307.427,391.681,308.086,392.091,308.391
						L392.091,308.391z"/>
				</g>
			</g>
			<g>
				<g>
					<path style="fill:#FFFFFF;" d="M389.785,309.266c0.216,1.458,0.464,2.908,0.725,4.358c0.222,1.231,0.245,3.471,1.087,4.474
						c0.279,0.332,0.82,0.128,0.929-0.245c0.358-1.23-0.565-3.362-0.855-4.548c-0.348-1.424-0.71-2.842-1.102-4.254
						C390.424,308.533,389.71,308.763,389.785,309.266L389.785,309.266z"/>
				</g>
			</g>
			<g>
				<g>
					<path style="fill:#FFFFFF;" d="M387.234,308.832c-0.847,1.156-1.667,2.329-2.473,3.514c-0.518,0.762-1.026,1.533-1.521,2.311
						c-0.231,0.362-0.774,1.01-0.6,1.481c0.077,0.208,0.273,0.416,0.519,0.395c0.543-0.046,0.832-0.643,1.099-1.052
						c0.513-0.787,1-1.596,1.481-2.403c0.754-1.267,1.489-2.542,2.197-3.836C388.192,308.773,387.537,308.417,387.234,308.832
						L387.234,308.832z"/>
				</g>
			</g>
			<g>
				<g>
					<path style="fill:#FFFFFF;" d="M386.217,306.395c-1.395,0.203-2.783,0.437-4.171,0.685c-1.158,0.207-3.361,0.227-4.289,1.048
						c-0.328,0.29-0.13,0.81,0.245,0.929c1.154,0.366,3.25-0.542,4.364-0.816c1.362-0.335,2.717-0.683,4.067-1.063
						C386.951,307.033,386.721,306.321,386.217,306.395L386.217,306.395z"/>
				</g>
			</g>
			<g>
				<g>
					<path style="fill:#FFFFFF;" d="M387.158,304.019c-1.179-0.891-2.374-1.755-3.583-2.605c-0.777-0.546-1.563-1.082-2.355-1.606
						c-0.381-0.252-0.999-0.793-1.5-0.637c-0.206,0.064-0.421,0.283-0.395,0.519c0.06,0.552,0.649,0.848,1.068,1.13
						c0.803,0.541,1.626,1.058,2.448,1.568c1.29,0.799,2.589,1.58,3.906,2.333C387.215,304.988,387.564,304.326,387.158,304.019
						L387.158,304.019z"/>
				</g>
			</g>
			<g>
				<g>
					<path style="fill:#FFFFFF;" d="M389.463,302.748c-0.203-1.395-0.437-2.783-0.685-4.171c-0.207-1.158-0.227-3.361-1.048-4.289
						c-0.29-0.328-0.81-0.13-0.929,0.245c-0.366,1.154,0.542,3.25,0.816,4.364c0.335,1.362,0.683,2.717,1.063,4.067
						C388.825,303.481,389.536,303.251,389.463,302.748L389.463,302.748z"/>
				</g>
			</g>
		</g>
		<g>
			<g>
				<g>
					<path style="fill:#FFFFFF;" d="M391.721,141.387c0.143-0.836,0.253-1.672,0.346-2.515c0.069-0.619,0.488-2.265-0.073-2.764
						c-0.173-0.154-0.47-0.235-0.678-0.087c-0.662,0.471-0.447,1.962-0.454,2.661c-0.008,0.867,0.011,1.731,0.06,2.597
						C390.947,141.709,391.639,141.864,391.721,141.387L391.721,141.387z"/>
				</g>
			</g>
			<g>
				<g>
					<path style="fill:#FFFFFF;" d="M392.85,142.321c0.653-0.462,1.281-0.947,1.908-1.443c0.436-0.345,0.856-0.707,1.277-1.07
						c0.286-0.246,0.602-0.495,0.728-0.865c0.151-0.441-0.308-0.799-0.711-0.711c-0.354,0.078-0.639,0.389-0.892,0.624
						c-0.402,0.373-0.806,0.743-1.193,1.132c-0.551,0.554-1.09,1.111-1.61,1.694C392.069,142.007,392.453,142.603,392.85,142.321
						L392.85,142.321z"/>
				</g>
			</g>
			<g>
				<g>
					<path style="fill:#FFFFFF;" d="M392.88,143.775c0.853,0.144,1.706,0.255,2.565,0.349c0.644,0.071,2.288,0.492,2.814-0.07
						c0.153-0.164,0.238-0.479,0.087-0.678c-0.501-0.664-1.98-0.449-2.707-0.457c-0.886-0.009-1.767,0.009-2.651,0.057
						C392.558,143.001,392.404,143.695,392.88,143.775L392.88,143.775z"/>
				</g>
			</g>
			<g>
				<g>
					<path style="fill:#FFFFFF;" d="M391.902,144.747c0.485,0.678,0.992,1.332,1.512,1.984s1.19,1.787,2.01,2.091
						c0.433,0.16,0.808-0.316,0.711-0.711c-0.089-0.365-0.403-0.654-0.648-0.918c-0.39-0.421-0.776-0.843-1.182-1.249
						c-0.578-0.577-1.159-1.143-1.765-1.69C392.217,143.964,391.619,144.352,391.902,144.747L391.902,144.747z"/>
				</g>
			</g>
			<g>
				<g>
					<path style="fill:#FFFFFF;" d="M390.538,145.111c-0.134,0.825-0.237,1.649-0.321,2.48c-0.061,0.604-0.464,2.256,0.097,2.73
						c0.179,0.151,0.465,0.236,0.678,0.087c0.66-0.458,0.432-1.945,0.431-2.63c-0.001-0.855-0.029-1.706-0.087-2.559
						C391.307,144.794,390.616,144.63,390.538,145.111L390.538,145.111z"/>
				</g>
			</g>
			<g>
				<g>
					<path style="fill:#FFFFFF;" d="M389.459,144.108c-0.652,0.462-1.281,0.947-1.908,1.443c-0.436,0.345-0.856,0.707-1.277,1.07
						c-0.286,0.246-0.602,0.495-0.729,0.865c-0.151,0.441,0.308,0.799,0.711,0.711c0.353-0.078,0.639-0.389,0.892-0.624
						c0.402-0.373,0.806-0.743,1.193-1.132c0.551-0.554,1.09-1.111,1.61-1.694C390.24,144.422,389.856,143.827,389.459,144.108
						L389.459,144.108z"/>
				</g>
			</g>
			<g>
				<g>
					<path style="fill:#FFFFFF;" d="M389.396,142.687c-0.847-0.15-1.695-0.266-2.549-0.366c-0.639-0.075-2.274-0.507-2.798,0.053
						c-0.156,0.167-0.235,0.476-0.088,0.678c0.484,0.665,1.979,0.459,2.693,0.472c0.88,0.015,1.756,0.003,2.634-0.039
						C389.721,143.464,389.87,142.771,389.396,142.687L389.396,142.687z"/>
				</g>
			</g>
			<g>
				<g>
					<path style="fill:#FFFFFF;" d="M390.261,141.519c-0.462-0.652-0.947-1.281-1.443-1.908c-0.345-0.436-0.707-0.856-1.07-1.277
						c-0.246-0.286-0.495-0.602-0.865-0.729c-0.441-0.151-0.799,0.308-0.711,0.711c0.078,0.354,0.389,0.639,0.624,0.892
						c0.373,0.402,0.743,0.806,1.132,1.193c0.554,0.551,1.111,1.09,1.694,1.61C389.947,142.3,390.542,141.916,390.261,141.519
						L390.261,141.519z"/>
				</g>
			</g>
		</g>
	</g>
</g>
<g id="DESIGNED_BY_FREEPIK">
	<g>
		<g id="XMLID_1_">
			<g id="XMLID_20_">
				<path id="XMLID_28_" style="fill:#F9FBFC;" d="M260.104,471.811c-0.432,0.443-0.803,0.931-1.108,1.453l-0.465-0.241
					c-0.067-0.298-0.349-0.503-0.659-0.466c-0.331,0.039-0.567,0.339-0.529,0.67c0.039,0.331,0.339,0.568,0.67,0.529
					c0.066-0.008,0.127-0.026,0.184-0.052l0.451,0.234c-0.251,0.554-0.433,1.139-0.539,1.744l0.747,0.132
					c0.23-1.306,0.85-2.507,1.792-3.473L260.104,471.811z"/>
				<path id="XMLID_27_" style="fill:#F9FBFC;" d="M265.592,469.509c-0.171,0-0.341,0.006-0.51,0.017l-0.074-0.626
					c0.188-0.149,0.296-0.389,0.266-0.645c-0.046-0.393-0.402-0.674-0.795-0.628c-0.393,0.046-0.674,0.402-0.628,0.795
					c0.03,0.254,0.189,0.461,0.404,0.564l0.074,0.624c-0.714,0.116-1.403,0.332-2.06,0.646l0.327,0.684
					c0.934-0.447,1.942-0.673,2.995-0.673c0.496,0,0.993,0.053,1.475,0.158l0.161-0.741
					C266.692,469.568,266.142,469.509,265.592,469.509z"/>
				<path id="XMLID_26_" style="fill:#F9FBFC;" d="M272.194,472.057c0.331-0.04,0.566-0.342,0.526-0.672
					c-0.04-0.331-0.341-0.566-0.672-0.526c-0.309,0.038-0.535,0.304-0.53,0.609l-0.416,0.363c-0.418-0.43-0.889-0.813-1.408-1.139
					l-0.404,0.641c1.134,0.715,2.021,1.726,2.563,2.925l0.69-0.313c-0.251-0.554-0.567-1.072-0.942-1.545l0.402-0.351
					C272.065,472.061,272.129,472.065,272.194,472.057z"/>
				<path id="XMLID_25_" style="fill:#F9FBFC;" d="M265.044,479.718c-0.386,0.023-0.775,0.035-1.157,0.035
					c-0.88,0-1.733-0.061-2.478-0.179c-0.39-0.062-0.846-0.155-1.27-0.292c1.046,1.861,3.069,3.125,5.388,3.125
					c2.855,0,5.262-1.916,5.95-4.504c-0.682,0.449-1.505,0.825-2.459,1.123C267.839,479.393,266.463,479.633,265.044,479.718z"/>
				<path id="XMLID_21_" style="fill:#F9FBFC;" d="M265.592,471.026c-3.352,0-6.08,2.666-6.08,5.943
					c0,0.426,0.046,0.849,0.137,1.261c0.673,0.483,2.706,0.89,5.348,0.731c2.879-0.173,5.297-0.957,6.672-2.159
					c-0.006-0.195-0.021-0.39-0.045-0.582C271.244,473.259,268.65,471.026,265.592,471.026z M263.432,477.54
					c-1.02,0-1.85-0.83-1.85-1.85c0-1.02,0.83-1.85,1.85-1.85c1.02,0,1.85,0.83,1.85,1.85
					C265.282,476.711,264.452,477.54,263.432,477.54z M268.17,476.632c-0.75,0-1.36-0.61-1.36-1.36c0-0.75,0.61-1.361,1.36-1.361
					c0.75,0,1.361,0.61,1.361,1.361C269.53,476.022,268.92,476.632,268.17,476.632z"/>
			</g>
			<path id="XMLID_18_" style="fill:#F9FBFC;" d="M281.595,472.893c-0.295-0.116-0.805-0.309-1.382-0.237
				c-0.551,0.069-0.844,0.341-0.844,1.007v0.866h2.228v1.717h-2.228v5.455h-1.932v-5.455h-1.34v-1.717h1.34v-0.888
				c0-1.68,0.896-2.783,2.568-2.783c0.643,0,1.157,0.122,1.59,0.308L281.595,472.893z"/>
			<path id="XMLID_16_" style="fill:#F9FBFC;" d="M286.298,476.225c-0.177-0.03-0.358-0.046-0.526-0.046
				c-0.896,0-1.51,0.548-1.51,1.613v3.908h-1.932v-7.172h1.873v0.785c0.451-0.673,1.14-0.977,2.021-0.977
				c0.414,0,0.848,0.128,1.094,0.337L286.298,476.225z"/>
			<path id="XMLID_13_" style="fill:#F9FBFC;" d="M293.965,478.103c0,0.222-0.015,0.489-0.037,0.651h-5.085
				c0.207,1.036,0.933,1.488,1.843,1.488c0.622,0,1.295-0.252,1.813-0.688l1.133,1.243c-0.814,0.748-1.85,1.088-3.057,1.088
				c-2.198,0-3.723-1.495-3.723-3.753c0-2.258,1.48-3.797,3.627-3.797C292.544,474.336,293.958,475.868,293.965,478.103z
				 M288.851,477.437h3.175c-0.177-0.918-0.733-1.436-1.562-1.436C289.554,476.001,289.021,476.549,288.851,477.437z"/>
			<path id="XMLID_10_" style="fill:#F9FBFC;" d="M301.618,478.103c0,0.222-0.015,0.489-0.037,0.651h-5.085
				c0.207,1.036,0.933,1.488,1.843,1.488c0.622,0,1.295-0.252,1.814-0.688l1.132,1.243c-0.814,0.748-1.85,1.088-3.057,1.088
				c-2.198,0-3.723-1.495-3.723-3.753c0-2.258,1.48-3.797,3.627-3.797C300.197,474.336,301.611,475.868,301.618,478.103z
				 M296.504,477.437h3.175c-0.178-0.918-0.733-1.436-1.562-1.436C297.207,476.001,296.674,476.549,296.504,477.437z"/>
			<path id="XMLID_7_" style="fill:#F9FBFC;" d="M309.964,478.11c0,2.154-1.495,3.775-3.471,3.775c-0.962,0-1.643-0.378-2.109-0.933
				v3.708h-1.924v-10.133h1.887v0.792c0.466-0.585,1.155-0.984,2.139-0.984C308.469,474.336,309.964,475.956,309.964,478.11z
				 M304.287,478.11c0,1.132,0.748,1.976,1.843,1.976c1.14,0,1.85-0.881,1.85-1.976c0-1.095-0.71-1.976-1.85-1.976
				C305.035,476.134,304.287,476.978,304.287,478.11z"/>
			<path id="XMLID_4_" style="fill:#F9FBFC;" d="M313.068,472.182c0,0.696-0.54,1.229-1.236,1.229c-0.696,0-1.229-0.533-1.229-1.229
				c0-0.696,0.533-1.243,1.229-1.243C312.527,470.938,313.068,471.486,313.068,472.182z M312.809,481.7h-1.932v-7.172h1.932V481.7z"
				/>
			<path id="XMLID_2_" style="fill:#F9FBFC;" d="M316.032,477.082l2.701-2.554h2.368l-3.479,3.375l3.501,3.797h-2.376l-2.716-2.901
				v2.901H314.1v-10.658h1.932V477.082z"/>
		</g>
		<g>
			<path style="fill:#F9FBFC;" d="M184.412,481.635v-1.055c-0.527,0.718-1.391,1.23-2.387,1.23c-1.846,0-3.149-1.406-3.149-3.706
				c0-2.256,1.289-3.721,3.149-3.721c0.952,0,1.816,0.469,2.387,1.245v-3.765h1.099v9.77H184.412z M184.412,479.716v-3.208
				c-0.395-0.615-1.245-1.143-2.124-1.143c-1.421,0-2.27,1.172-2.27,2.739c0,1.567,0.85,2.724,2.27,2.724
				C183.168,480.829,184.017,480.332,184.412,479.716z"/>
			<path style="fill:#F9FBFC;" d="M186.932,478.09c0-2.051,1.465-3.706,3.486-3.706c2.139,0,3.398,1.67,3.398,3.794v0.279h-5.727
				c0.088,1.333,1.025,2.446,2.549,2.446c0.805,0,1.626-0.322,2.182-0.893l0.527,0.718c-0.703,0.703-1.655,1.084-2.812,1.084
				C188.44,481.811,186.932,480.302,186.932,478.09z M190.403,475.293c-1.509,0-2.256,1.274-2.314,2.358h4.643
				C192.718,476.596,192.015,475.293,190.403,475.293z"/>
			<path style="fill:#F9FBFC;" d="M194.607,480.697l0.571-0.791c0.469,0.542,1.362,1.011,2.329,1.011c1.084,0,1.67-0.513,1.67-1.216
				c0-1.713-4.38-0.659-4.38-3.281c0-1.098,0.952-2.036,2.636-2.036c1.201,0,2.051,0.454,2.622,1.025l-0.513,0.762
				c-0.424-0.513-1.201-0.894-2.109-0.894c-0.967,0-1.567,0.483-1.567,1.113c0,1.552,4.38,0.527,4.38,3.281
				c0,1.187-0.952,2.138-2.783,2.138C196.306,481.811,195.325,481.459,194.607,480.697z"/>
			<path style="fill:#F9FBFC;" d="M201.477,472.817c0-0.41,0.337-0.747,0.732-0.747c0.41,0,0.747,0.337,0.747,0.747
				c0,0.41-0.337,0.732-0.747,0.732C201.814,473.549,201.477,473.227,201.477,472.817z M201.667,481.635v-7.075h1.099v7.075H201.667
				z"/>
			<path style="fill:#F9FBFC;" d="M204.582,483.451l0.556-0.82c0.586,0.703,1.289,0.967,2.3,0.967c1.172,0,2.27-0.571,2.27-2.124
				v-1.011c-0.513,0.718-1.377,1.26-2.373,1.26c-1.845,0-3.149-1.377-3.149-3.662c0-2.27,1.289-3.676,3.149-3.676
				c0.952,0,1.802,0.469,2.373,1.245v-1.069h1.098v6.87c0,2.344-1.641,3.076-3.369,3.076
				C206.237,484.506,205.417,484.272,204.582,483.451z M209.709,479.599v-3.091c-0.381-0.615-1.23-1.143-2.109-1.143
				c-1.421,0-2.27,1.128-2.27,2.695c0,1.553,0.849,2.695,2.27,2.695C208.478,480.756,209.328,480.214,209.709,479.599z"/>
			<path style="fill:#F9FBFC;" d="M217.413,481.635v-4.629c0-1.245-0.63-1.641-1.582-1.641c-0.865,0-1.685,0.527-2.095,1.099v5.17
				h-1.099v-7.075h1.099v1.025c0.498-0.586,1.464-1.201,2.519-1.201c1.48,0,2.256,0.747,2.256,2.285v4.966H217.413z"/>
			<path style="fill:#F9FBFC;" d="M219.932,478.09c0-2.051,1.465-3.706,3.486-3.706c2.139,0,3.398,1.67,3.398,3.794v0.279h-5.727
				c0.088,1.333,1.025,2.446,2.549,2.446c0.806,0,1.626-0.322,2.183-0.893l0.527,0.718c-0.703,0.703-1.655,1.084-2.812,1.084
				C221.441,481.811,219.932,480.302,219.932,478.09z M223.404,475.293c-1.509,0-2.256,1.274-2.314,2.358h4.643
				C225.718,476.596,225.015,475.293,223.404,475.293z"/>
			<path style="fill:#F9FBFC;" d="M233.35,481.635v-1.055c-0.527,0.718-1.392,1.23-2.388,1.23c-1.846,0-3.149-1.406-3.149-3.706
				c0-2.256,1.289-3.721,3.149-3.721c0.952,0,1.817,0.469,2.388,1.245v-3.765h1.098v9.77H233.35z M233.35,479.716v-3.208
				c-0.396-0.615-1.245-1.143-2.124-1.143c-1.421,0-2.27,1.172-2.27,2.739c0,1.567,0.849,2.724,2.27,2.724
				C232.105,480.829,232.954,480.332,233.35,479.716z"/>
			<path style="fill:#F9FBFC;" d="M239.692,481.635v-9.77h1.098v3.765c0.572-0.776,1.421-1.245,2.388-1.245
				c1.845,0,3.149,1.465,3.149,3.721c0,2.299-1.304,3.706-3.149,3.706c-0.996,0-1.86-0.513-2.388-1.23v1.055H239.692z
				 M242.9,480.829c1.436,0,2.285-1.157,2.285-2.724c0-1.568-0.85-2.739-2.285-2.739c-0.864,0-1.728,0.527-2.109,1.143v3.208
				C241.171,480.332,242.036,480.829,242.9,480.829z"/>
			<path style="fill:#F9FBFC;" d="M247.528,483.407c0.161,0.073,0.425,0.117,0.601,0.117c0.483,0,0.805-0.161,1.055-0.747
				l0.469-1.069l-2.959-7.148h1.187l2.358,5.801l2.344-5.801h1.201l-3.545,8.51c-0.425,1.025-1.143,1.421-2.08,1.435
				c-0.234,0-0.601-0.044-0.805-0.103L247.528,483.407z"/>
		</g>
	</g>
</g>
</svg>
